<svg width="257" height="200" viewBox="0 0 257 200" fill="none" xmlns="http://www.w3.org/2000/svg">
<path d="M230.317 195.697H15.3486V48.0107L235.222 49.9635L235.206 190.405C235.206 193.327 233.017 195.695 230.317 195.695V195.697Z" fill="white"/>
<path d="M230.317 196.089H15.3485C15.1311 196.089 14.9565 195.912 14.9565 195.697V48.011C14.9565 47.9058 14.9975 47.8061 15.0724 47.7312C15.1472 47.6582 15.2559 47.6243 15.3521 47.6172L235.226 49.57C235.441 49.5718 235.614 49.7464 235.614 49.962L235.598 190.403C235.598 193.537 233.228 196.087 230.315 196.087L230.317 196.089ZM15.7405 195.303H230.317C232.797 195.303 234.814 193.106 234.814 190.405L234.83 50.3522L15.7423 48.4065V195.303H15.7405Z" fill="#0F0A0C"/>
<path d="M128.94 70.6201L2.79897 69.9894C1.03503 69.9805 -0.124884 68.1488 0.619889 66.5506L37.6893 16.0236C38.5053 14.91 39.8096 14.2615 41.1904 14.2882C56.0413 14.5804 143.233 12.1572 143.233 12.1572L128.942 70.6183L128.94 70.6201Z" fill="#0F0A0C"/>
<path d="M62.8299 129.731H47.897C46.9901 129.731 46.2524 128.993 46.2524 128.086V105.235C46.2524 104.328 46.9901 103.591 47.897 103.591H62.8299C63.7368 103.591 64.4744 104.328 64.4744 105.235V128.086C64.4744 128.993 63.7368 129.731 62.8299 129.731ZM47.897 104.377C47.4231 104.377 47.0382 104.761 47.0382 105.235V128.086C47.0382 128.56 47.4231 128.945 47.897 128.945H62.8299C63.3038 128.945 63.6887 128.56 63.6887 128.086V105.235C63.6887 104.761 63.3038 104.377 62.8299 104.377H47.897Z" fill="#0F0A0C"/>
<path d="M42.2498 129.732H27.5699C26.5935 129.732 25.7988 128.937 25.7988 127.961V105.361C25.7988 104.385 26.5935 103.59 27.5699 103.59H42.2498C43.2262 103.59 44.0208 104.385 44.0208 105.361V127.961C44.0208 128.937 43.2262 129.732 42.2498 129.732ZM27.5699 104.377C27.0265 104.377 26.5846 104.819 26.5846 105.363V127.962C26.5846 128.506 27.0265 128.948 27.5699 128.948H42.2498C42.7932 128.948 43.2351 128.506 43.2351 127.962V105.363C43.2351 104.819 42.7932 104.377 42.2498 104.377H27.5699Z" fill="#0F0A0C"/>
<path d="M63.1862 157.903H47.5389C46.8297 157.903 46.2524 157.326 46.2524 156.616V133.049C46.2524 132.34 46.8297 131.763 47.5389 131.763H63.1862C63.8954 131.763 64.4727 132.34 64.4727 133.049V156.616C64.4727 157.326 63.8954 157.903 63.1862 157.903ZM47.5407 132.548C47.2645 132.548 47.04 132.773 47.04 133.049V156.616C47.04 156.893 47.2645 157.117 47.5407 157.117H63.188C63.4642 157.117 63.6887 156.893 63.6887 156.616V133.049C63.6887 132.773 63.4642 132.548 63.188 132.548H47.5407Z" fill="#0F0A0C"/>
<path d="M42.2138 157.903H27.6052C26.6092 157.903 25.8003 157.092 25.8003 156.098V133.57C25.8003 132.574 26.611 131.765 27.6052 131.765H42.2138C43.2098 131.765 44.0187 132.575 44.0187 133.57V156.098C44.0187 157.094 43.208 157.903 42.2138 157.903ZM27.6052 132.549C27.0422 132.549 26.5843 133.007 26.5843 133.57V156.098C26.5843 156.661 27.0422 157.119 27.6052 157.119H42.2138C42.7768 157.119 43.2347 156.661 43.2347 156.098V133.57C43.2347 133.007 42.7768 132.549 42.2138 132.549H27.6052Z" fill="#0F0A0C"/>
<path d="M78.6779 191.633L77.8013 51.8157L162.618 13.957L243.647 52.3716L242.036 193.823C241.986 195.737 240.335 197.258 238.325 197.242L83.1733 195.952C80.6824 195.931 78.6761 194.003 78.6761 191.633H78.6779Z" fill="white"/>
<path d="M238.359 197.634C238.346 197.634 238.336 197.634 238.323 197.634L83.1717 196.344C80.4777 196.321 78.2861 194.21 78.2843 191.635L77.4077 51.8175C77.4077 51.6625 77.4986 51.52 77.6411 51.4558L162.458 13.5971C162.563 13.5508 162.682 13.5526 162.786 13.6007L243.815 52.0153C243.954 52.0812 244.041 52.222 244.039 52.3752L242.428 193.827C242.375 195.935 240.55 197.634 238.357 197.634H238.359ZM78.197 52.0705L79.0719 191.632C79.0719 193.78 80.9142 195.543 83.1788 195.56L238.33 196.85C238.339 196.85 238.35 196.85 238.359 196.85C240.132 196.85 241.603 195.495 241.646 193.814L243.253 52.6211L162.615 14.3918L78.197 52.0723V52.0705Z" fill="#0F0A0C"/>
<path d="M229.334 130.54H214.401C213.494 130.54 212.757 129.803 212.757 128.896V106.082C212.757 105.175 213.494 104.438 214.401 104.438H229.334C230.241 104.438 230.979 105.175 230.979 106.082V128.896C230.979 129.803 230.241 130.54 229.334 130.54ZM214.401 105.225C213.927 105.225 213.543 105.61 213.543 106.084V128.897C213.543 129.371 213.927 129.756 214.401 129.756H229.334C229.808 129.756 230.193 129.371 230.193 128.897V106.084C230.193 105.61 229.808 105.225 229.334 105.225H214.401Z" fill="#0F0A0C"/>
<path d="M208.756 130.54H194.076C193.099 130.54 192.305 129.746 192.305 128.769V106.209C192.305 105.232 193.099 104.438 194.076 104.438H208.756C209.732 104.438 210.527 105.232 210.527 106.209V128.769C210.527 129.746 209.732 130.54 208.756 130.54ZM194.076 105.225C193.532 105.225 193.09 105.667 193.09 106.21V128.771C193.09 129.314 193.532 129.756 194.076 129.756H208.756C209.299 129.756 209.741 129.314 209.741 128.771V106.21C209.741 105.667 209.299 105.225 208.756 105.225H194.076Z" fill="#0F0A0C"/>
<path d="M229.691 158.668H214.043C213.334 158.668 212.757 158.091 212.757 157.382V133.854C212.757 133.145 213.334 132.567 214.043 132.567H229.691C230.4 132.567 230.977 133.145 230.977 133.854V157.382C230.977 158.091 230.4 158.668 229.691 158.668ZM214.045 133.353C213.769 133.353 213.544 133.578 213.544 133.854V157.382C213.544 157.658 213.769 157.883 214.045 157.883H229.692C229.969 157.883 230.193 157.658 230.193 157.382V133.854C230.193 133.578 229.969 133.353 229.692 133.353H214.045Z" fill="#0F0A0C"/>
<path d="M208.72 158.668H194.111C193.115 158.668 192.306 157.858 192.306 156.864V134.374C192.306 133.378 193.117 132.569 194.111 132.569H208.72C209.716 132.569 210.525 133.38 210.525 134.374V156.864C210.525 157.86 209.714 158.668 208.72 158.668ZM194.109 133.353C193.546 133.353 193.088 133.811 193.088 134.374V156.864C193.088 157.427 193.546 157.884 194.109 157.884H208.718C209.281 157.884 209.739 157.427 209.739 156.864V134.374C209.739 133.811 209.281 133.353 208.718 133.353H194.109Z" fill="#0F0A0C"/>
<path d="M178.257 57.6044H163.324C162.417 57.6044 161.68 56.8667 161.68 55.9598V37.9766C161.68 37.0697 162.417 36.332 163.324 36.332H178.257C179.164 36.332 179.902 37.0697 179.902 37.9766V55.9598C179.902 56.8667 179.164 57.6044 178.257 57.6044ZM163.326 37.1196C162.852 37.1196 162.467 37.5044 162.467 37.9784V55.9616C162.467 56.4356 162.852 56.8204 163.326 56.8204H178.259C178.733 56.8204 179.118 56.4356 179.118 55.9616V37.9784C179.118 37.5044 178.733 37.1196 178.259 37.1196H163.326Z" fill="#0F0A0C"/>
<path d="M157.677 57.6044H142.997C142.021 57.6044 141.226 56.8097 141.226 55.8333V38.1031C141.226 37.1267 142.021 36.332 142.997 36.332H157.677C158.653 36.332 159.448 37.1267 159.448 38.1031V55.8333C159.448 56.8097 158.653 57.6044 157.677 57.6044ZM142.997 37.1196C142.454 37.1196 142.012 37.5614 142.012 38.1049V55.8351C142.012 56.3785 142.454 56.8204 142.997 56.8204H157.677C158.22 56.8204 158.662 56.3785 158.662 55.8351V38.1049C158.662 37.5614 158.22 37.1196 157.677 37.1196H142.997Z" fill="#0F0A0C"/>
<path d="M178.614 80.3663H162.967C162.258 80.3663 161.681 79.789 161.681 79.0799V60.3821C161.681 59.673 162.258 59.0957 162.967 59.0957H178.614C179.324 59.0957 179.901 59.673 179.901 60.3821V79.0799C179.901 79.789 179.324 80.3663 178.614 80.3663ZM162.967 59.8815C162.691 59.8815 162.466 60.106 162.466 60.3821V79.0799C162.466 79.356 162.691 79.5805 162.967 79.5805H178.614C178.891 79.5805 179.115 79.356 179.115 79.0799V60.3821C179.115 60.106 178.891 59.8815 178.614 59.8815H162.967Z" fill="#0F0A0C"/>
<path d="M157.641 80.3664H143.032C142.036 80.3664 141.228 79.5557 141.228 78.5615V60.9026C141.228 59.9066 142.038 59.0977 143.032 59.0977H157.641C158.637 59.0977 159.446 59.9084 159.446 60.9026V78.5615C159.446 79.5575 158.635 80.3664 157.641 80.3664ZM143.032 59.8816C142.469 59.8816 142.012 60.3395 142.012 60.9026V78.5615C142.012 79.1246 142.469 79.5825 143.032 79.5825H157.641C158.204 79.5825 158.662 79.1246 158.662 78.5615V60.9026C158.662 60.3395 158.204 59.8816 157.641 59.8816H143.032Z" fill="#0F0A0C"/>
<path d="M125.282 130.498H110.349C109.442 130.498 108.704 129.76 108.704 128.853V106.002C108.704 105.095 109.442 104.357 110.349 104.357H125.282C126.188 104.357 126.926 105.095 126.926 106.002V128.853C126.926 129.76 126.188 130.498 125.282 130.498ZM110.349 105.143C109.875 105.143 109.49 105.528 109.49 106.002V128.853C109.49 129.327 109.875 129.712 110.349 129.712H125.282C125.755 129.712 126.14 129.327 126.14 128.853V106.002C126.14 105.528 125.755 105.143 125.282 105.143H110.349Z" fill="#0F0A0C"/>
<path d="M104.7 130.497H90.0201C89.0437 130.497 88.249 129.703 88.249 128.726V106.127C88.249 105.15 89.0437 104.355 90.0201 104.355H104.7C105.676 104.355 106.471 105.15 106.471 106.127V128.726C106.471 129.703 105.676 130.497 104.7 130.497ZM90.0201 105.143C89.4767 105.143 89.0348 105.585 89.0348 106.128V128.728C89.0348 129.271 89.4767 129.713 90.0201 129.713H104.7C105.243 129.713 105.685 129.271 105.685 128.728V106.128C105.685 105.585 105.243 105.143 104.7 105.143H90.0201Z" fill="#0F0A0C"/>
<path d="M125.638 158.668H109.991C109.281 158.668 108.704 158.091 108.704 157.382V133.815C108.704 133.106 109.281 132.528 109.991 132.528H125.638C126.347 132.528 126.924 133.106 126.924 133.815V157.382C126.924 158.091 126.347 158.668 125.638 158.668ZM109.991 133.314C109.714 133.314 109.49 133.539 109.49 133.815V157.382C109.49 157.658 109.714 157.883 109.991 157.883H125.638C125.914 157.883 126.139 157.658 126.139 157.382V133.815C126.139 133.539 125.914 133.314 125.638 133.314H109.991Z" fill="#0F0A0C"/>
<path d="M104.664 158.669H90.0554C89.0594 158.669 88.2505 157.858 88.2505 156.864V134.335C88.2505 133.339 89.0612 132.53 90.0554 132.53H104.664C105.66 132.53 106.469 133.341 106.469 134.335V156.864C106.469 157.86 105.658 158.669 104.664 158.669ZM90.0554 133.314C89.4924 133.314 89.0345 133.772 89.0345 134.335V156.864C89.0345 157.427 89.4924 157.885 90.0554 157.885H104.664C105.227 157.885 105.685 157.427 105.685 156.864V134.335C105.685 133.772 105.227 133.314 104.664 133.314H90.0554Z" fill="#0F0A0C"/>
<path d="M162.355 0.78577L254.479 49.9515C256.431 50.9938 256.802 53.1123 255.277 54.5199L251.758 58.9333C250.194 60.895 247.464 61.483 245.231 60.3391L161.683 17.593C161.125 17.3062 160.463 17.3044 159.903 17.5877L74.2971 60.7827C73.1692 61.3529 71.7972 61.0696 70.983 60.1021L67.3589 55.7849C65.2974 53.3297 66.1455 50.0495 69.2672 48.396L159.228 0.780425C160.206 0.261935 161.377 0.265498 162.353 0.78577H162.355Z" fill="#0F0A0C"/>
<path d="M73.0634 61.4705C72.1671 61.4705 71.2905 61.0821 70.6811 60.3551L67.0571 56.0379C66.0504 54.837 65.6477 53.392 65.9256 51.9666C66.2374 50.3737 67.3867 48.9465 69.0829 48.0485L159.044 0.43297C160.138 -0.1461 161.445 -0.144318 162.538 0.438315L254.661 49.6058C255.752 50.1866 256.452 51.1185 256.586 52.1608C256.709 53.123 256.345 54.0548 255.563 54.7871L252.062 59.1774C250.389 61.2763 247.438 61.9106 245.049 60.6883L161.501 17.9423C161.055 17.7142 160.522 17.7124 160.075 17.9369L74.4692 61.132C74.0184 61.36 73.5373 61.4687 73.0616 61.4687L73.0634 61.4705ZM160.786 0.785759C160.314 0.785759 159.842 0.899788 159.412 1.12785L69.4517 48.7434C67.9675 49.5292 66.9626 50.7586 66.6989 52.1181C66.4673 53.3047 66.8094 54.5181 67.6611 55.5337L71.2852 59.8509C71.9836 60.6847 73.1506 60.9235 74.1199 60.4335L159.724 17.2385C160.394 16.8999 161.194 16.9017 161.861 17.2456L245.409 59.9916C247.467 61.0447 250.007 60.4977 251.449 58.6892L254.968 54.2758C254.98 54.2597 254.995 54.2455 255.009 54.2312C255.615 53.6718 255.9 52.9715 255.809 52.2606C255.707 51.4749 255.155 50.7586 254.293 50.2989L162.169 1.13142C161.736 0.899792 161.26 0.785759 160.786 0.785759Z" fill="white"/>
<path d="M180.743 103.826H139.002C137.701 103.826 136.646 104.881 136.646 106.182V197.252C136.646 198.553 137.701 199.608 139.002 199.608H180.743C182.044 199.608 183.099 198.553 183.099 197.252V106.182C183.099 104.881 182.044 103.826 180.743 103.826Z" fill="white"/>
<path d="M180.742 200H139.003C137.486 200 136.253 198.767 136.253 197.251V106.182C136.253 104.666 137.486 103.433 139.003 103.433H180.742C182.258 103.433 183.491 104.666 183.491 106.182V197.251C183.491 198.767 182.258 200 180.742 200ZM139.003 104.218C137.919 104.218 137.039 105.099 137.039 106.182V197.251C137.039 198.334 137.919 199.214 139.003 199.214H180.742C181.825 199.214 182.705 198.334 182.705 197.251V106.182C182.705 105.099 181.825 104.218 180.742 104.218H139.003Z" fill="#0F0A0C"/>
<path d="M179.396 196.083L141.003 196.225C140.005 196.225 139.198 195.416 139.198 194.42V108.303C139.198 107.305 140.007 106.498 141.003 106.498L180.056 106.546C180.768 106.546 181.34 107.132 181.326 107.845L179.398 196.085L179.396 196.083Z" fill="#0F0A0C"/>
<path d="M188.933 191.082H131.008C130.394 191.082 129.896 191.58 129.896 192.194V198.321C129.896 198.935 130.394 199.433 131.008 199.433H188.933C189.547 199.433 190.045 198.935 190.045 198.321V192.194C190.045 191.58 189.547 191.082 188.933 191.082Z" fill="white"/>
<path d="M188.935 199.825H131.01C130.18 199.825 129.504 199.15 129.504 198.322V192.194C129.504 191.364 130.18 190.69 131.01 190.69H188.935C189.765 190.69 190.439 191.366 190.439 192.194V198.322C190.439 199.152 189.763 199.825 188.935 199.825ZM131.01 191.474C130.613 191.474 130.29 191.797 130.29 192.194V198.322C130.29 198.719 130.613 199.042 131.01 199.042H188.935C189.332 199.042 189.655 198.719 189.655 198.322V192.194C189.655 191.797 189.332 191.474 188.935 191.474H131.01Z" fill="#0F0A0C"/>
<path d="M151.779 186.925C151.13 186.825 150.651 186.269 150.646 185.613L150.2 112.273C150.2 112.006 150.393 111.779 150.656 111.735L180.511 106.687C180.95 106.612 181.349 106.953 181.347 107.396L181.049 191.417L151.777 186.925H151.779Z" fill="white"/>
<path d="M181.051 191.811C181.032 191.811 181.012 191.811 180.992 191.805L151.72 187.314C150.875 187.184 150.259 186.471 150.254 185.616L149.808 112.275C149.808 111.812 150.138 111.423 150.592 111.347L180.447 106.299C180.77 106.244 181.099 106.335 181.35 106.547C181.6 106.759 181.744 107.069 181.742 107.397L181.445 191.417C181.445 191.531 181.395 191.64 181.308 191.715C181.236 191.775 181.146 191.809 181.053 191.809L181.051 191.811ZM180.634 107.069C180.616 107.069 180.597 107.069 180.577 107.074L150.722 112.122C150.647 112.134 150.594 112.198 150.594 112.273L151.039 185.61C151.043 186.075 151.378 186.465 151.839 186.537L180.661 190.959L180.957 107.393C180.957 107.261 180.885 107.181 180.843 107.145C180.807 107.115 180.736 107.069 180.636 107.069H180.634Z" fill="#0F0A0C"/>
<path d="M231.019 91.6336H86.911C86.6936 91.6336 86.519 91.4572 86.519 91.2416C86.519 91.026 86.6954 90.8496 86.911 90.8496H231.019C231.237 90.8496 231.411 91.026 231.411 91.2416C231.411 91.4572 231.235 91.6336 231.019 91.6336Z" fill="#0F0A0C"/>
<path d="M47.0641 60.3111C46.9608 60.3111 46.8592 60.2701 46.7844 60.1953C46.1804 59.5842 31.9495 45.152 29.578 38.4312C29.5103 38.2388 29.6012 38.0267 29.7865 37.943C29.9344 37.8771 44.6802 31.2169 48.1742 27.1188C48.2775 26.9977 48.445 26.9513 48.5964 27.0012C48.7479 27.0511 48.8548 27.1883 48.8655 27.3487C48.9314 28.3429 50.4548 51.8068 47.433 60.0563C47.3866 60.1828 47.2797 60.2773 47.1479 60.3058C47.1194 60.3111 47.0926 60.3147 47.0641 60.3147V60.3111ZM30.4457 38.506C32.8475 44.5355 44.4646 56.6835 46.8967 59.1868C49.2824 51.5449 48.3808 32.6369 48.135 28.2966C44.053 32.195 32.6106 37.5189 30.4457 38.5078V38.506Z" fill="#0F0A0C"/>
</svg>
