<svg width="22" height="22" viewBox="0 0 22 22" fill="none" xmlns="http://www.w3.org/2000/svg">
<mask id="mask0_626_8558" style="mask-type:alpha" maskUnits="userSpaceOnUse" x="0" y="0" width="22" height="22">
<rect width="22" height="22" fill="#D9D9D9"/>
</mask>
<g mask="url(#mask0_626_8558)">
<path d="M5.38682 15.6747C6.16781 15.0788 7.04069 14.609 8.00545 14.2653C8.97021 13.9215 9.98091 13.7497 11.0375 13.7497C12.0942 13.7497 13.1049 13.9215 14.0697 14.2653C15.0344 14.609 15.9073 15.0788 16.6883 15.6747C17.2243 15.0483 17.6416 14.3379 17.9402 13.5434C18.2388 12.749 18.3881 11.9011 18.3881 10.9997C18.3881 8.96773 17.6722 7.23752 16.2404 5.80905C14.8085 4.38058 13.0743 3.66634 11.0375 3.66634C9.00084 3.66634 7.26657 4.38058 5.83474 5.80905C4.40292 7.23752 3.687 8.96773 3.687 10.9997C3.687 11.9011 3.83631 12.749 4.13493 13.5434C4.43354 14.3379 4.85084 15.0483 5.38682 15.6747ZM11.0375 11.9163C10.134 11.9163 9.37219 11.607 8.75199 10.9882C8.13179 10.3695 7.82169 9.6094 7.82169 8.70801C7.82169 7.80662 8.13179 7.04655 8.75199 6.4278C9.37219 5.80905 10.134 5.49967 11.0375 5.49967C11.9411 5.49967 12.7029 5.80905 13.3231 6.4278C13.9433 7.04655 14.2534 7.80662 14.2534 8.70801C14.2534 9.6094 13.9433 10.3695 13.3231 10.9882C12.7029 11.607 11.9411 11.9163 11.0375 11.9163ZM11.0375 20.1663C9.76652 20.1663 8.57205 19.9257 7.45416 19.4445C6.33626 18.9632 5.36385 18.3101 4.53691 17.4851C3.70997 16.6601 3.05531 15.69 2.57293 14.5747C2.09056 13.4594 1.84937 12.2677 1.84937 10.9997C1.84937 9.73162 2.09056 8.53995 2.57293 7.42467C3.05531 6.3094 3.70997 5.33926 4.53691 4.51426C5.36385 3.68926 6.33626 3.03613 7.45416 2.55488C8.57205 2.07363 9.76652 1.83301 11.0375 1.83301C12.3086 1.83301 13.503 2.07363 14.6209 2.55488C15.7388 3.03613 16.7113 3.68926 17.5382 4.51426C18.3651 5.33926 19.0198 6.3094 19.5022 7.42467C19.9845 8.53995 20.2257 9.73162 20.2257 10.9997C20.2257 12.2677 19.9845 13.4594 19.5022 14.5747C19.0198 15.69 18.3651 16.6601 17.5382 17.4851C16.7113 18.3101 15.7388 18.9632 14.6209 19.4445C13.503 19.9257 12.3086 20.1663 11.0375 20.1663ZM11.0375 18.333C11.8492 18.333 12.6149 18.2146 13.3346 17.9778C14.0543 17.741 14.7128 17.4011 15.3101 16.958C14.7128 16.515 14.0543 16.175 13.3346 15.9382C12.6149 15.7014 11.8492 15.583 11.0375 15.583C10.2259 15.583 9.46025 15.7014 8.7405 15.9382C8.02076 16.175 7.36228 16.515 6.76504 16.958C7.36228 17.4011 8.02076 17.741 8.7405 17.9778C9.46025 18.2146 10.2259 18.333 11.0375 18.333ZM11.0375 10.083C11.4357 10.083 11.7649 9.95315 12.0253 9.69342C12.2856 9.4337 12.4158 9.10523 12.4158 8.70801C12.4158 8.31079 12.2856 7.98231 12.0253 7.72259C11.7649 7.46287 11.4357 7.33301 11.0375 7.33301C10.6394 7.33301 10.3102 7.46287 10.0498 7.72259C9.78949 7.98231 9.65932 8.31079 9.65932 8.70801C9.65932 9.10523 9.78949 9.4337 10.0498 9.69342C10.3102 9.95315 10.6394 10.083 11.0375 10.083Z" fill="black" fill-opacity="0.19"/>
</g>
</svg>
