<svg width="20" height="20" viewBox="0 0 20 20" fill="none" xmlns="http://www.w3.org/2000/svg">
<path d="M17.4982 10.417L17.4998 9.58366C17.4998 5.85199 17.4998 3.98533 16.3407 2.82616C15.1815 1.66699 13.3157 1.66699 9.58317 1.66699C5.8515 1.66699 3.98484 1.66699 2.82567 2.82616C1.6665 3.98533 1.6665 5.85116 1.6665 9.58366C1.6665 13.3153 1.6665 15.182 2.82567 16.3412C3.98484 17.5003 5.85067 17.5003 9.58317 17.5003C10.0248 17.5003 10.4165 17.4987 10.4165 17.4987M1.6665 5.83366H17.4998M8.33317 13.3337H9.58317M4.99984 13.3337H5.83317M8.33317 10.0003H13.3332M4.99984 10.0003H5.83317M12.4998 15.417H18.3332M15.4165 18.3337V12.5003" stroke="#0F0A0C" stroke-width="1.25" stroke-linecap="round" stroke-linejoin="round"/>
</svg>
