<svg width="12" height="15" viewBox="0 0 12 15" fill="none" xmlns="http://www.w3.org/2000/svg">
<path d="M5.57143 0.731445C7.04906 0.731445 8.46618 1.31843 9.51102 2.36328C10.5559 3.40812 11.1429 4.82524 11.1429 6.30287C11.1429 8.65716 9.48857 11.2229 6.22286 14.0274C6.04127 14.1834 5.80975 14.2691 5.57036 14.2689C5.33097 14.2687 5.0996 14.1826 4.91829 14.0263L4.70229 13.8389C1.58114 11.1074 0 8.60459 0 6.30287C0 4.82524 0.586988 3.40812 1.63183 2.36328C2.67668 1.31843 4.09379 0.731445 5.57143 0.731445ZM5.57143 1.58859C4.32112 1.58859 3.12203 2.08527 2.23793 2.96937C1.35383 3.85347 0.857143 5.05257 0.857143 6.30287C0.857143 8.30402 2.31314 10.6097 5.26514 13.1926L5.47829 13.3772C5.5042 13.3994 5.53725 13.4117 5.57143 13.4117C5.60561 13.4117 5.63866 13.3994 5.66457 13.3772C8.75943 10.7189 10.2857 8.35144 10.2857 6.30287C10.2857 5.68378 10.1638 5.07076 9.92686 4.49879C9.68995 3.92683 9.34269 3.40713 8.90493 2.96937C8.46717 2.53161 7.94747 2.18436 7.37551 1.94744C6.80354 1.71053 6.19052 1.58859 5.57143 1.58859ZM5.57143 4.16002C6.13975 4.16002 6.68479 4.38578 7.08666 4.78764C7.48852 5.18951 7.71429 5.73455 7.71429 6.30287C7.71429 6.87119 7.48852 7.41624 7.08666 7.8181C6.68479 8.21997 6.13975 8.44573 5.57143 8.44573C5.00311 8.44573 4.45806 8.21997 4.0562 7.8181C3.65434 7.41624 3.42857 6.87119 3.42857 6.30287C3.42857 5.73455 3.65434 5.18951 4.0562 4.78764C4.45806 4.38578 5.00311 4.16002 5.57143 4.16002ZM5.57143 5.01716C5.23044 5.01716 4.90341 5.15262 4.66229 5.39374C4.42117 5.63485 4.28571 5.96188 4.28571 6.30287C4.28571 6.64387 4.42117 6.97089 4.66229 7.21201C4.90341 7.45313 5.23044 7.58859 5.57143 7.58859C5.91242 7.58859 6.23945 7.45313 6.48057 7.21201C6.72168 6.97089 6.85714 6.64387 6.85714 6.30287C6.85714 5.96188 6.72168 5.63485 6.48057 5.39374C6.23945 5.15262 5.91242 5.01716 5.57143 5.01716Z" fill="#8C8A8B"/>
</svg>
