<svg width="44" height="44" viewBox="0 0 44 44" fill="none" xmlns="http://www.w3.org/2000/svg">
<path d="M3.345 43.3848C2.61167 43.3848 1.99583 43.1348 1.4975 42.6348C0.999167 42.1381 0.75 41.5223 0.75 40.7873V13.4798C0.75 12.7464 0.999167 12.1298 1.4975 11.6298C1.9975 11.1331 2.61417 10.8848 3.3475 10.8848H10.75V3.47977C10.75 2.74643 10.9992 2.12977 11.4975 1.62977C11.9975 1.1331 12.6142 0.884766 13.3475 0.884766H30.655C31.3883 0.884766 32.0042 1.13393 32.5025 1.63227C33.0008 2.1306 33.25 2.74727 33.25 3.48226V20.8823H40.655C41.3883 20.8823 42.0042 21.1323 42.5025 21.6323C43.0008 22.1306 43.25 22.7473 43.25 23.4823V40.7873C43.25 41.5206 43.0008 42.1373 42.5025 42.6373C42.0025 43.1356 41.3858 43.3848 40.6525 43.3848H25.75V33.3848H18.25V43.3848H3.345ZM3.25 40.8848H10.75V33.3848H3.25V40.8848ZM3.25 30.8848H10.75V23.3848H3.25V30.8848ZM3.25 20.8848H10.75V13.3848H3.25V20.8848ZM13.25 30.8848H20.75V23.3848H13.25V30.8848ZM13.25 20.8848H20.75V13.3848H13.25V20.8848ZM13.25 10.8848H20.75V3.38477H13.25V10.8848ZM23.25 30.8848H30.75V23.3848H23.25V30.8848ZM23.25 20.8848H30.75V13.3848H23.25V20.8848ZM23.25 10.8848H30.75V3.38477H23.25V10.8848ZM33.25 40.8848H40.75V33.3848H33.25V40.8848ZM33.25 30.8848H40.75V23.3848H33.25V30.8848Z" fill="#FFFAFC"/>
</svg>
