<svg width="16" height="17" viewBox="0 0 16 17" fill="none" xmlns="http://www.w3.org/2000/svg">
<path d="M15.1631 13.9008L15.1632 13.9007L12.3675 9.90674C12.3539 9.88958 12.3367 9.8756 12.317 9.86579L15.1631 13.9008ZM15.1631 13.9008L15.17 13.91M15.1631 13.9008L15.17 13.91M15.17 13.91C15.1867 13.9322 15.1968 13.9587 15.1993 13.9865C15.2018 14.0142 15.1966 14.0421 15.1841 14.067C15.1717 14.092 15.1525 14.1129 15.1288 14.1275C15.1051 14.1422 15.0778 14.15 15.05 14.15H0.949951C0.922094 14.15 0.894788 14.1422 0.871093 14.1275C0.847396 14.1129 0.828246 14.092 0.815787 14.067C0.80333 14.0421 0.798056 14.0142 0.800557 13.9865C0.803059 13.9587 0.813238 13.9322 0.829951 13.91L0.830102 13.9101L0.836683 13.9007L3.63244 9.90673C3.64604 9.88958 3.66325 9.8756 3.68287 9.86579C3.7037 9.85537 3.72667 9.84995 3.74995 9.84995H5.49995H5.84995V9.49995V8.44995V8.14829L5.55159 8.10378C5.09552 8.03575 4.67696 7.81221 4.36678 7.47101C4.05912 7.13258 3.87682 6.69901 3.85009 6.24264C3.85455 5.98107 3.91599 5.72356 4.03016 5.48808C4.14595 5.24926 4.31312 5.03901 4.5197 4.87237L4.76028 4.67831L4.59745 4.41558C4.44258 4.16568 4.35729 3.87893 4.3504 3.58501C4.34352 3.29109 4.4153 3.00066 4.55831 2.74379C4.70132 2.48691 4.91037 2.27291 5.16383 2.12393C5.41729 1.97494 5.70595 1.89639 5.99995 1.89639C6.29395 1.89639 6.58262 1.97494 6.83608 2.12393C7.08954 2.27291 7.29858 2.48691 7.4416 2.74379C7.5846 3.00066 7.65638 3.29109 7.6495 3.58501C7.64262 3.87893 7.55733 4.16568 7.40245 4.41558L7.23963 4.67831L7.48021 4.87237C7.68678 5.03901 7.85395 5.24926 7.96975 5.48808C8.08446 5.72469 8.14594 5.98352 8.14988 6.24638C8.13349 6.71162 7.95532 7.15666 7.64594 7.50471C7.3349 7.85463 6.91098 8.08433 6.448 8.15383L6.14995 8.19857V8.49995V9.49995V9.84995M15.17 13.91L6.14995 9.84995M6.14995 9.84995H6.49995M6.14995 9.84995H6.49995M6.49995 9.84995H12.25C12.2732 9.84995 12.2962 9.85537 12.317 9.86579L6.49995 9.84995ZM4.14957 6.25123L4.15027 6.23491C4.16029 6.00202 4.22445 5.77467 4.33765 5.5709C4.4461 5.3757 4.59669 5.20728 4.77834 5.07783C4.88472 4.97372 4.95232 4.83606 4.96943 4.68778C4.98733 4.5326 4.94876 4.37617 4.86077 4.24711L4.85652 4.24088L4.85254 4.23447C4.71513 4.013 4.64479 3.7565 4.64996 3.49597M4.14957 6.25123L4.99995 3.49995M4.14957 6.25123L4.15039 6.26753C4.16835 6.62465 4.30184 6.96627 4.53075 7.24096C4.75965 7.51565 5.0716 7.70854 5.41962 7.79061L5.84995 7.89208V7.44995V5.99995C5.84995 5.96017 5.86576 5.92202 5.89389 5.89389C5.92202 5.86576 5.96017 5.84995 5.99995 5.84995C6.03973 5.84995 6.07789 5.86576 6.10602 5.89389C6.13415 5.92202 6.14995 5.96017 6.14995 5.99995V7.44995V7.89208L6.58028 7.79061C6.9283 7.70854 7.24025 7.51565 7.46916 7.24096C7.69807 6.96627 7.83155 6.62465 7.84951 6.26753L7.85005 6.25685L7.84993 6.24616C7.84747 6.0188 7.79335 5.79497 7.69166 5.5916C7.59054 5.38935 7.44501 5.2126 7.26597 5.07455M4.14957 6.25123L7.26597 5.07455M4.64996 3.49597C4.64998 3.49464 4.65001 3.4933 4.65004 3.49197L4.99995 3.49995M4.64996 3.49597C4.64995 3.4973 4.64995 3.49862 4.64995 3.49995H4.99995M4.64996 3.49597C4.65101 3.13936 4.79312 2.79759 5.04536 2.54536L5.28368 2.78368L5.04536 2.54536C5.29853 2.29218 5.64191 2.14995 5.99995 2.14995C6.35799 2.14995 6.70137 2.29218 6.95455 2.54536L6.71623 2.78368L6.95455 2.54536C7.20772 2.79853 7.34995 3.14191 7.34995 3.49995V3.50954L7.34982 3.50954C7.34327 3.7485 7.27339 3.98143 7.14732 4.18454L7.14285 4.19173L7.13804 4.19871C7.04454 4.33424 7.00596 4.5002 7.03009 4.66308L6.68387 4.71437M4.99995 3.49995C4.99995 3.23474 5.10531 2.98038 5.29285 2.79285C5.48038 2.60531 5.73474 2.49995 5.99995 2.49995C6.26517 2.49995 6.51952 2.60531 6.70706 2.79285C6.8946 2.98038 6.99995 3.23474 6.99995 3.49995C6.9951 3.67696 6.94334 3.84951 6.84995 3.99995C6.7061 4.20846 6.64674 4.46379 6.68387 4.71437M6.68387 4.71437L7.03009 4.66308C7.05409 4.82508 7.13835 4.97202 7.26597 5.07455M6.68387 4.71437C6.72099 4.96495 6.85183 5.19211 7.04995 5.34995M5.49995 7.44995H5.14995V7.31143C5.25859 7.37394 5.37638 7.42081 5.49995 7.44995ZM5.49995 7.44995L5.58028 7.10929C5.5531 7.10289 5.5263 7.0953 5.49995 7.08659V7.44995ZM6.49995 7.44995V7.08659C6.4736 7.0953 6.44681 7.10289 6.41962 7.10929L6.49995 7.44995ZM6.49995 7.44995H6.84995V7.31143C6.74132 7.37394 6.62352 7.42081 6.49995 7.44995ZM7.26597 5.07455L7.49995 6.24995C7.49806 6.07564 7.45657 5.90404 7.37861 5.74812C7.30065 5.5922 7.18827 5.45605 7.04995 5.34995M7.26597 5.07455C7.26666 5.0751 7.26735 5.07565 7.26804 5.07621L7.04995 5.34995M7.26597 5.07455C7.26497 5.07378 7.26397 5.07301 7.26298 5.07224L7.04995 5.34995M1.61322 13.2992L1.22772 13.85H1.89995H14.1H14.7722L14.3867 13.2992L12.2867 10.2992L12.1822 10.15H12H6.49995H6.14995V10.5V11.5C6.14995 11.5397 6.13415 11.5779 6.10602 11.606C6.07789 11.6341 6.03973 11.65 5.99995 11.65C5.96017 11.65 5.92202 11.6341 5.89389 11.606C5.86576 11.5779 5.84995 11.5397 5.84995 11.5V10.5V10.15H5.49995H3.99995H3.81772L3.71322 10.2992L1.61322 13.2992Z" stroke="#8C8A8B" stroke-width="0.7"/>
</svg>
