<svg width="16" height="17" viewBox="0 0 16 17" fill="none" xmlns="http://www.w3.org/2000/svg">
<g clip-path="url(#clip0_685_5581)">
<path d="M15 7.8335H1.66666V2.2135C1.66666 1.8335 2.02 1.50015 2.42331 1.50015H3.81666C4.21 1.50015 4.52666 1.82015 4.53 2.21015C3.88 2.3735 3.33334 2.9735 3.33334 3.60681V4.50015C3.33334 4.6835 3.48334 4.8335 3.66669 4.8335H6C6.18334 4.8335 6.33334 4.6835 6.33334 4.50015V3.60684C6.33334 2.9635 5.82334 2.3735 5.19669 2.2135C5.19669 1.4535 4.58003 0.833496 3.81669 0.833496H2.42334C1.65334 0.833496 1 1.46684 1 2.2135V7.8335C0.45 7.83015 0.00334375 8.27684 0 8.82684C0 9.1135 0.12 9.3835 0.333344 9.5735V11.3202C0.333344 12.6768 0.936688 13.8402 1.91334 14.5968L1.36669 15.6835C1.28334 15.8468 1.35003 16.0468 1.51669 16.1301C1.68003 16.2135 1.88003 16.1468 1.96334 15.9801L2.47669 14.9568C3.15003 15.3168 3.90334 15.5034 4.66669 15.4968H11.3333C12.0967 15.5034 12.85 15.3168 13.5233 14.9568L14.0367 15.9801C14.12 16.1435 14.32 16.2101 14.4833 16.1301C14.6467 16.0501 14.7133 15.8468 14.6333 15.6835L14.0867 14.5935C15.0633 13.8401 15.6667 12.6735 15.6667 11.3168V9.57015C15.8767 9.38681 16 9.11681 16 8.8335C16 8.28018 15.5533 7.8335 15 7.8335ZM4.86334 2.8335C5.26 2.8335 5.66669 3.2235 5.66669 3.60684V4.16684H4V3.60684C4 3.23684 4.45 2.8335 4.86334 2.8335ZM15 11.3202C15 13.3235 13.4233 14.8335 11.3333 14.8335H4.66666C2.57666 14.8335 1 13.3235 1 11.3202V9.83353H15V11.3202ZM15 9.16684H1.01C0.843344 9.16684 0.693344 9.04684 0.67 8.8835C0.64 8.67684 0.8 8.50015 1 8.50015H14.99C15.1567 8.50015 15.3067 8.62015 15.33 8.7835C15.36 8.99018 15.2 9.16684 15 9.16684Z" fill="#8C8A8B"/>
</g>
<defs>
<clipPath id="clip0_685_5581">
<rect width="16" height="16" fill="white" transform="translate(0 0.5)"/>
</clipPath>
</defs>
</svg>
