<svg width="16" height="17" viewBox="0 0 16 17" fill="none" xmlns="http://www.w3.org/2000/svg">
<g clip-path="url(#clip0_685_5577)">
<path d="M1.6 3.7002C1.07375 3.7002 0.64 4.13395 0.64 4.6602V9.5202C0.64125 9.54019 0.645 9.56019 0.65 9.58019C0.65 9.58395 0.65 9.58645 0.65 9.5902C0.50625 9.81644 0.38875 10.0577 0.3 10.3202C0.10125 10.9064 0.01625 11.5789 0 12.3402V12.6602C0 12.6702 0 12.6802 0 12.6902V16.5002H2.24V15.2202C2.24 14.9539 2.305 14.8152 2.39 14.7302C2.475 14.6452 2.61375 14.5802 2.88 14.5802H13.12C13.3863 14.5802 13.525 14.6452 13.61 14.7302C13.695 14.8152 13.76 14.9539 13.76 15.2202V16.5002H16V12.7102C16.0013 12.6939 16.0013 12.6764 16 12.6602C16 12.5502 16.0025 12.4464 16 12.3402C15.9838 11.5789 15.8988 10.9064 15.7 10.3202C15.6113 10.0602 15.4925 9.82395 15.35 9.6002C15.3563 9.57395 15.36 9.5477 15.36 9.5202V4.6602C15.36 4.13395 14.9263 3.7002 14.4 3.7002H1.6ZM1.6 4.3402H14.4C14.58 4.3402 14.72 4.4802 14.72 4.6602V8.8702C14.6413 8.80395 14.5575 8.7402 14.47 8.6802C14.2563 8.5327 14.0238 8.3952 13.76 8.2802V6.9002C13.76 6.6752 13.6125 6.5002 13.45 6.3902C13.2875 6.2802 13.0888 6.20395 12.84 6.1402C12.3425 6.0127 11.6438 5.9402 10.72 5.9402C9.79625 5.9402 9.0975 6.0127 8.6 6.1402C8.3575 6.2027 8.16 6.27395 8 6.3802C7.84 6.27395 7.6425 6.2027 7.4 6.1402C6.9025 6.0127 6.20375 5.9402 5.28 5.9402C4.35625 5.9402 3.6575 6.0127 3.16 6.1402C2.91125 6.20395 2.7125 6.2802 2.55 6.3902C2.3875 6.5002 2.24 6.6752 2.24 6.9002V8.2802C1.97625 8.3952 1.74375 8.5327 1.53 8.6802C1.4425 8.7402 1.35875 8.80395 1.28 8.8702V4.6602C1.28 4.4802 1.42 4.3402 1.6 4.3402ZM5.28 6.5802C6.17 6.5802 6.83 6.6552 7.24 6.7602C7.445 6.8127 7.58625 6.87645 7.65 6.9202C7.67625 6.9377 7.6775 6.9402 7.68 6.9402V7.5402C5.57625 7.55395 4.01875 7.71145 2.88 8.0602V6.9402C2.8825 6.9402 2.88375 6.9377 2.91 6.9202C2.97375 6.87645 3.115 6.8127 3.32 6.7602C3.73 6.6552 4.39 6.5802 5.28 6.5802ZM10.72 6.5802C11.61 6.5802 12.27 6.6552 12.68 6.7602C12.885 6.8127 13.0263 6.87645 13.09 6.9202C13.1163 6.9377 13.1175 6.9402 13.12 6.9402V8.0602C11.9813 7.71145 10.4238 7.55395 8.32 7.5402V6.9402C8.3225 6.9402 8.32375 6.9377 8.35 6.9202C8.41375 6.87645 8.555 6.8127 8.76 6.7602C9.17 6.6552 9.83 6.5802 10.72 6.5802ZM7.94 8.1802C7.97375 8.1852 8.00625 8.1852 8.04 8.1802C8.05 8.1802 8.06 8.1802 8.07 8.1802C11.2725 8.1852 13.1225 8.5202 14.11 9.2002C14.6075 9.5427 14.9088 9.9677 15.1 10.5302C15.2663 11.0202 15.3338 11.6239 15.35 12.3402H0.65C0.66625 11.6239 0.73375 11.0202 0.9 10.5302C1.09125 9.9677 1.3925 9.5427 1.89 9.2002C2.8775 8.51895 4.73125 8.18395 7.94 8.1802ZM0.64 12.9802H15.36V15.8602H14.4V15.2202C14.4 14.8464 14.305 14.5052 14.07 14.2702C13.835 14.0352 13.4938 13.9402 13.12 13.9402H2.88C2.50625 13.9402 2.165 14.0352 1.93 14.2702C1.695 14.5052 1.6 14.8464 1.6 15.2202V15.8602H0.64V12.9802Z" fill="#8C8A8B"/>
</g>
<defs>
<clipPath id="clip0_685_5577">
<rect width="16" height="16" fill="white" transform="translate(0 0.5)"/>
</clipPath>
</defs>
</svg>
