<svg width="50" height="51" viewBox="0 0 50 51" fill="none" xmlns="http://www.w3.org/2000/svg">
<rect y="0.458984" width="50" height="49.8268" rx="24.9134" fill="#E54F8E"/>
<path d="M33 17.3721H29.83L28 15.3721H22L20.17 17.3721H17C16.4696 17.3721 15.9609 17.5828 15.5858 17.9579C15.2107 18.3329 15 18.8416 15 19.3721V31.3721C15 31.9025 15.2107 32.4112 15.5858 32.7863C15.9609 33.1614 16.4696 33.3721 17 33.3721H33C33.5304 33.3721 34.0391 33.1614 34.4142 32.7863C34.7893 32.4112 35 31.9025 35 31.3721V19.3721C35 18.8416 34.7893 18.3329 34.4142 17.9579C34.0391 17.5828 33.5304 17.3721 33 17.3721ZM33 31.3721H17V19.3721H21.05L22.88 17.3721H27.12L28.95 19.3721H33V31.3721ZM25 20.3721C23.6739 20.3721 22.4021 20.8989 21.4645 21.8365C20.5268 22.7742 20 24.046 20 25.3721C20 26.6982 20.5268 27.9699 21.4645 28.9076C22.4021 29.8453 23.6739 30.3721 25 30.3721C26.3261 30.3721 27.5979 29.8453 28.5355 28.9076C29.4732 27.9699 30 26.6982 30 25.3721C30 24.046 29.4732 22.7742 28.5355 21.8365C27.5979 20.8989 26.3261 20.3721 25 20.3721ZM25 28.3721C24.2044 28.3721 23.4413 28.056 22.8787 27.4934C22.3161 26.9308 22 26.1677 22 25.3721C22 24.5764 22.3161 23.8134 22.8787 23.2507C23.4413 22.6881 24.2044 22.3721 25 22.3721C25.7956 22.3721 26.5587 22.6881 27.1213 23.2507C27.6839 23.8134 28 24.5764 28 25.3721C28 26.1677 27.6839 26.9308 27.1213 27.4934C26.5587 28.056 25.7956 28.3721 25 28.3721Z" fill="white"/>
</svg>
