<svg width="29" height="30" viewBox="0 0 29 30" fill="none" xmlns="http://www.w3.org/2000/svg">
<path fill-rule="evenodd" clip-rule="evenodd" d="M14.5 1.5C21.9558 1.5 28 7.54418 28 15C28 22.4558 21.9558 28.5 14.5 28.5C7.04418 28.5 1 22.4558 1 15C1 7.54418 7.04418 1.5 14.5 1.5ZM14.5 4.20002C8.53534 4.20002 3.70002 9.03534 3.70002 15C3.70002 20.9647 8.53534 25.8 14.5 25.8C20.4647 25.8 25.3 20.9647 25.3 15C25.3 9.03534 20.4647 4.20002 14.5 4.20002ZM14.5 8.25002C18.2279 8.25002 21.25 11.2721 21.25 15C21.25 18.7279 18.2279 21.75 14.5 21.75C10.7721 21.75 7.75002 18.7279 7.75002 15C7.75002 11.2721 10.7721 8.25002 14.5 8.25002Z" fill="white"/>
</svg>
