<svg width="20" height="20" viewBox="0 0 20 20" fill="none" xmlns="http://www.w3.org/2000/svg">
<g clip-path="url(#clip0_1042_4050)">
<path d="M3.125 15.0003C3.125 14.8346 3.05916 14.6756 2.94195 14.5584C2.82474 14.4412 2.66576 14.3753 2.5 14.3753C2.33424 14.3753 2.17527 14.4412 2.05806 14.5584C1.94085 14.6756 1.875 14.8346 1.875 15.0003H3.125ZM1.875 11.667C1.875 11.8328 1.94085 11.9917 2.05806 12.1089C2.17527 12.2261 2.33424 12.292 2.5 12.292C2.66576 12.292 2.82474 12.2261 2.94195 12.1089C3.05916 11.9917 3.125 11.8328 3.125 11.667H1.875ZM5.83334 7.292C6.63667 7.292 7.17667 7.29366 7.57917 7.34783C7.96334 7.3995 8.12834 7.48866 8.23667 7.59783L9.12 6.71283C8.74084 6.33366 8.26834 6.1795 7.745 6.10866C7.24 6.04033 6.60167 6.042 5.83334 6.042V7.292ZM9.79167 10.0003C9.79167 9.232 9.79334 8.59366 9.725 8.08866C9.655 7.56533 9.5 7.092 9.12 6.71283L8.23667 7.59783C8.345 7.70616 8.43417 7.87033 8.48667 8.25533C8.54 8.657 8.54167 9.197 8.54167 10.0003H9.79167ZM5.83334 6.042C5.065 6.042 4.42667 6.04033 3.92167 6.10866C3.39834 6.17866 2.92584 6.33366 2.54667 6.71283L3.43 7.597C3.53834 7.48866 3.70334 7.3995 4.08834 7.347C4.49 7.29366 5.03 7.292 5.83334 7.292V6.042ZM3.125 10.0003C3.125 9.197 3.12667 8.657 3.18084 8.2545C3.2325 7.87033 3.32084 7.70533 3.43 7.597L2.54584 6.71366C2.16667 7.09283 2.0125 7.56533 1.94167 8.08866C1.87334 8.59366 1.875 9.232 1.875 10.0003H3.125ZM3.125 18.3337V15.0003H1.875V18.3337H3.125ZM3.125 11.667V10.0003H1.875V11.667H3.125Z" fill="#0F0A0C"/>
<path d="M5.83341 18.3337V13.3337C5.83341 11.762 5.83341 10.977 6.32175 10.4887C6.81008 10.0003 7.59508 10.0003 9.16675 10.0003H10.8334M10.8334 10.0003C12.4051 10.0003 13.1901 10.0003 13.6784 10.4887C14.0717 10.8812 14.1484 11.467 14.1634 12.5003M10.8334 10.0003V6.47699C10.8334 4.29199 10.8334 3.20033 11.5509 2.70199C12.2684 2.20533 13.2909 2.58866 15.3367 3.35616C16.3834 3.74783 16.9067 3.94449 17.2034 4.37283C17.5001 4.80116 17.5001 5.36033 17.5001 6.47699M14.1667 18.3337V16.042M17.5001 18.3337V10.0003M3.33341 6.66699V5.41699C3.33341 4.63116 3.33341 4.23866 3.57758 3.99449C3.82175 3.75033 4.21425 3.75033 5.00008 3.75033H6.66675C7.45258 3.75033 7.84508 3.75033 8.08925 3.99449C8.33341 4.23866 8.33341 4.63116 8.33341 5.41699V6.66699M5.83341 3.33366V1.66699M18.3334 18.3337H1.66675M8.33341 12.5003H8.75008M11.6667 12.5003H10.4167M8.33341 15.0003H11.6667" stroke="#0F0A0C" stroke-width="1.5" stroke-linecap="round"/>
</g>
<defs>
<clipPath id="clip0_1042_4050">
<rect width="20" height="20" fill="white"/>
</clipPath>
</defs>
</svg>
