<svg width="18" height="18" viewBox="0 0 18 18" fill="none" xmlns="http://www.w3.org/2000/svg">
<path d="M17.0576 0.942373C16.4534 0.338945 15.6344 0 14.7805 0C13.9266 0 13.1076 0.338945 12.5035 0.942373L1.74637 11.6988C1.38054 12.0642 1.12347 12.5241 1.00385 13.0272L0.0183205 17.1688C-0.00836375 17.281 -0.00586191 17.3982 0.0255875 17.5091C0.057037 17.62 0.116385 17.7211 0.197972 17.8026C0.27956 17.8841 0.380665 17.9433 0.491646 17.9746C0.602627 18.0059 0.719784 18.0083 0.831942 17.9815L4.97295 16.9951C5.47634 16.8757 5.93659 16.6186 6.30229 16.2527L17.0576 5.49802C17.661 4.8939 18 4.07496 18 3.2211C18 2.36723 17.661 1.54829 17.0576 0.944173M13.4575 1.89814C13.6312 1.72441 13.8375 1.5866 14.0645 1.49257C14.2915 1.39855 14.5348 1.35015 14.7805 1.35015C15.0262 1.35015 15.2695 1.39855 15.4965 1.49257C15.7235 1.5866 15.9298 1.72441 16.1035 1.89814C16.2773 2.07187 16.4151 2.27813 16.5091 2.50512C16.6032 2.73211 16.6516 2.9754 16.6516 3.2211C16.6516 3.46679 16.6032 3.71008 16.5091 3.93708C16.4151 4.16407 16.2773 4.37032 16.1035 4.54405L15.3007 5.34413L12.6547 2.69911L13.4575 1.89814ZM11.7006 3.65488L14.3467 6.29899L5.34646 15.2987C5.15746 15.4877 4.91985 15.62 4.65974 15.6821L1.58526 16.4147L2.31698 13.3404C2.37908 13.0794 2.51229 12.8418 2.70129 12.6528L11.7006 3.65488Z" fill="white"/>
</svg>
