<svg width="48" height="48" viewBox="0 0 48 48" fill="none" xmlns="http://www.w3.org/2000/svg">
<path d="M29.9998 39.76C30.0798 40.36 29.8798 41 29.4198 41.42C29.2347 41.6054 29.015 41.7525 28.773 41.8529C28.5311 41.9532 28.2717 42.0049 28.0098 42.0049C27.7478 42.0049 27.4885 41.9532 27.2465 41.8529C27.0046 41.7525 26.7848 41.6054 26.5998 41.42L18.5798 33.4C18.3618 33.1867 18.196 32.9259 18.0954 32.6379C17.9948 32.35 17.9621 32.0427 17.9998 31.74V21.5L8.41977 9.24C8.09499 8.82306 7.94844 8.29452 8.01215 7.76986C8.07586 7.2452 8.34464 6.76709 8.75977 6.44C9.13977 6.16 9.55977 6 9.99977 6H37.9998C38.4398 6 38.8598 6.16 39.2398 6.44C39.6549 6.76709 39.9237 7.2452 39.9874 7.76986C40.0511 8.29452 39.9046 8.82306 39.5798 9.24L29.9998 21.5V39.76ZM14.0798 10L21.9998 20.12V31.16L25.9998 35.16V20.1L33.9198 10H14.0798Z" fill="white"/>
</svg>
