<svg width="34" height="36" viewBox="0 0 34 36" fill="none" xmlns="http://www.w3.org/2000/svg">
<path d="M0.913254 1.80032C0.521587 2.20007 0.294922 2.82245 0.294922 3.62845V32.3779C0.294922 33.1839 0.521587 33.8063 0.913254 34.2061L1.00992 34.2938L17.5332 18.1901V17.8098L1.00992 1.70607L0.913254 1.80032Z" fill="#0F0A0C"/>
<path d="M25.0349 23.5607L19.5332 18.19V17.8098L25.0415 12.4392L25.1649 12.509L31.6882 16.1279C33.5499 17.1549 33.5499 18.8449 31.6882 19.8784L25.1649 23.4908L25.0349 23.5607Z" fill="#0F0A0C"/>
<path d="M24.165 24.4908L18.5333 19L1.91333 35.2061C2.53166 35.8398 3.54 35.9162 4.68666 35.2825L24.165 24.4908Z" fill="#0F0A0C"/>
<path d="M24.165 11.5091L4.68666 0.717505C3.54 0.0902549 2.53166 0.166628 1.91333 0.800378L18.5333 17L24.165 11.5091Z" fill="#0F0A0C"/>
</svg>
