<svg width="20" height="20" viewBox="0 0 20 20" fill="none" xmlns="http://www.w3.org/2000/svg">
<path d="M10.0175 2.42529C7.25914 2.42529 5.01747 4.66696 5.01747 7.42529V9.83363C5.01747 10.342 4.80081 11.117 4.54247 11.5503L3.58414 13.142C2.99247 14.1253 3.40081 15.217 4.48414 15.5836C8.07581 16.7836 11.9508 16.7836 15.5425 15.5836C16.5508 15.2503 16.9925 14.0586 16.4425 13.142L15.4841 11.5503C15.2341 11.117 15.0175 10.342 15.0175 9.83363V7.42529C15.0175 4.67529 12.7675 2.42529 10.0175 2.42529Z" stroke="#0F0A0C" stroke-miterlimit="10" stroke-linecap="round"/>
<path d="M11.5579 2.6667C11.2996 2.5917 11.0329 2.53337 10.7579 2.50003C9.95794 2.40003 9.19128 2.45837 8.47461 2.6667C8.71628 2.05003 9.31628 1.6167 10.0163 1.6167C10.7163 1.6167 11.3163 2.05003 11.5579 2.6667Z" stroke="#0F0A0C" stroke-miterlimit="10" stroke-linecap="round" stroke-linejoin="round"/>
<path d="M12.5156 15.8833C12.5156 17.2583 11.3906 18.3833 10.0156 18.3833C9.33229 18.3833 8.69896 18.1 8.24896 17.65C7.79896 17.2 7.51562 16.5666 7.51562 15.8833" stroke="#0F0A0C" stroke-miterlimit="10"/>
</svg>
