<svg width="36" height="48" viewBox="0 0 36 48" fill="none" xmlns="http://www.w3.org/2000/svg">
<path d="M8.25 13.5C8.84674 13.5 9.41903 13.2629 9.84099 12.841C10.2629 12.419 10.5 11.8467 10.5 11.25C10.5 10.6533 10.2629 10.081 9.84099 9.65901C9.41903 9.23705 8.84674 9 8.25 9C7.65326 9 7.08097 9.23705 6.65901 9.65901C6.23705 10.081 6 10.6533 6 11.25C6 11.8467 6.23705 12.419 6.65901 12.841C7.08097 13.2629 7.65326 13.5 8.25 13.5ZM10.5 20.25C10.5 20.8467 10.2629 21.419 9.84099 21.841C9.41903 22.2629 8.84674 22.5 8.25 22.5C7.65326 22.5 7.08097 22.2629 6.65901 21.841C6.23705 21.419 6 20.8467 6 20.25C6 19.6533 6.23705 19.081 6.65901 18.659C7.08097 18.2371 7.65326 18 8.25 18C8.84674 18 9.41903 18.2371 9.84099 18.659C10.2629 19.081 10.5 19.6533 10.5 20.25ZM8.25 31.5C8.54547 31.5 8.83806 31.4418 9.11104 31.3287C9.38402 31.2157 9.63206 31.0499 9.84099 30.841C10.0499 30.6321 10.2157 30.384 10.3287 30.111C10.4418 29.8381 10.5 29.5455 10.5 29.25C10.5 28.9545 10.4418 28.6619 10.3287 28.389C10.2157 28.116 10.0499 27.8679 9.84099 27.659C9.63206 27.4501 9.38402 27.2843 9.11104 27.1713C8.83806 27.0582 8.54547 27 8.25 27C7.65326 27 7.08097 27.2371 6.65901 27.659C6.23705 28.081 6 28.6533 6 29.25C6 29.8467 6.23705 30.419 6.65901 30.841C7.08097 31.2629 7.65326 31.5 8.25 31.5ZM19.5 11.25C19.5 11.8467 19.2629 12.419 18.841 12.841C18.419 13.2629 17.8467 13.5 17.25 13.5C16.6533 13.5 16.081 13.2629 15.659 12.841C15.2371 12.419 15 11.8467 15 11.25C15 10.6533 15.2371 10.081 15.659 9.65901C16.081 9.23705 16.6533 9 17.25 9C17.8467 9 18.419 9.23705 18.841 9.65901C19.2629 10.081 19.5 10.6533 19.5 11.25ZM17.25 22.5C17.8467 22.5 18.419 22.2629 18.841 21.841C19.2629 21.419 19.5 20.8467 19.5 20.25C19.5 19.6533 19.2629 19.081 18.841 18.659C18.419 18.2371 17.8467 18 17.25 18C16.6533 18 16.081 18.2371 15.659 18.659C15.2371 19.081 15 19.6533 15 20.25C15 20.8467 15.2371 21.419 15.659 21.841C16.081 22.2629 16.6533 22.5 17.25 22.5ZM19.5 29.25C19.5 29.8467 19.2629 30.419 18.841 30.841C18.419 31.2629 17.8467 31.5 17.25 31.5C16.6533 31.5 16.081 31.2629 15.659 30.841C15.2371 30.419 15 29.8467 15 29.25C15 28.6533 15.2371 28.081 15.659 27.659C16.081 27.2371 16.6533 27 17.25 27C17.8467 27 18.419 27.2371 18.841 27.659C19.2629 28.081 19.5 28.6533 19.5 29.25ZM26.25 31.5C26.5455 31.5 26.8381 31.4418 27.111 31.3287C27.384 31.2157 27.6321 31.0499 27.841 30.841C28.0499 30.6321 28.2157 30.384 28.3287 30.111C28.4418 29.8381 28.5 29.5455 28.5 29.25C28.5 28.9545 28.4418 28.6619 28.3287 28.389C28.2157 28.116 28.0499 27.8679 27.841 27.659C27.6321 27.4501 27.384 27.2843 27.111 27.1713C26.8381 27.0582 26.5455 27 26.25 27C25.6533 27 25.081 27.2371 24.659 27.659C24.2371 28.081 24 28.6533 24 29.25C24 29.8467 24.2371 30.419 24.659 30.841C25.081 31.2629 25.6533 31.5 26.25 31.5ZM1.5 48C1.10218 48 0.720645 47.842 0.43934 47.5607C0.158036 47.2794 0 46.8978 0 46.5V4.5C0 3.30653 0.474105 2.16193 1.31802 1.31802C2.16193 0.474106 3.30653 0 4.5 0H22.5C23.6935 0 24.8381 0.474106 25.682 1.31802C26.5259 2.16193 27 3.30653 27 4.5V18H31.5C32.6935 18 33.8381 18.4741 34.682 19.318C35.5259 20.1619 36 21.3065 36 22.5V46.5C36 46.8978 35.842 47.2794 35.5607 47.5607C35.2794 47.842 34.8978 48 34.5 48H1.5ZM3 4.5V45H9V37.5C9 37.1022 9.15804 36.7206 9.43934 36.4393C9.72064 36.158 10.1022 36 10.5 36H25.5C25.8978 36 26.2794 36.158 26.5607 36.4393C26.842 36.7206 27 37.1022 27 37.5V45H33V22.5C33 22.1022 32.842 21.7206 32.5607 21.4393C32.2794 21.158 31.8978 21 31.5 21H25.5C25.1022 21 24.7206 20.842 24.4393 20.5607C24.158 20.2794 24 19.8978 24 19.5V4.5C24 4.10218 23.842 3.72064 23.5607 3.43934C23.2794 3.15804 22.8978 3 22.5 3H4.5C4.10218 3 3.72064 3.15804 3.43934 3.43934C3.15804 3.72064 3 4.10218 3 4.5ZM24 39H19.5V45H24V39ZM16.5 39H12V45H16.5V39Z" fill="#8C8A8B"/>
</svg>
