<svg width="46" height="47" viewBox="0 0 46 47" fill="none" xmlns="http://www.w3.org/2000/svg">
<path d="M43.9696 18.6656L25.2196 0.970278L25.1985 0.951528C24.596 0.399786 23.8087 0.09375 22.9918 0.09375C22.1749 0.09375 21.3876 0.399786 20.7852 0.951528L20.7641 0.970278L2.0141 18.6656C1.68245 18.9744 1.41836 19.3485 1.23845 19.7644C1.05855 20.1802 0.966729 20.6289 0.968784 21.082V42.75C0.968784 43.6202 1.31449 44.4548 1.92984 45.0702C2.54519 45.6855 3.37979 46.0312 4.25003 46.0312H15.5C16.3703 46.0312 17.2049 45.6855 17.8202 45.0702C18.4356 44.4548 18.7813 43.6202 18.7813 42.75V31.5C18.7813 31.3756 18.8307 31.2564 18.9186 31.1685C19.0065 31.0806 19.1257 31.0312 19.25 31.0312H26.75C26.8744 31.0312 26.9936 31.0806 27.0815 31.1685C27.1694 31.2564 27.2188 31.3756 27.2188 31.5V42.75C27.2188 43.6202 27.5645 44.4548 28.1798 45.0702C28.7952 45.6855 29.6298 46.0312 30.5 46.0312H41.75C42.6203 46.0312 43.4549 45.6855 44.0702 45.0702C44.6856 44.4548 45.0313 43.6202 45.0313 42.75V21.082C45.0312 20.6277 44.9369 20.1783 44.7541 19.7623C44.5713 19.3464 44.3042 18.9729 43.9696 18.6656ZM42.2188 42.75C42.2188 42.8743 42.1694 42.9935 42.0815 43.0814C41.9936 43.1693 41.8744 43.2187 41.75 43.2187H30.5C30.3757 43.2187 30.2565 43.1693 30.1686 43.0814C30.0807 42.9935 30.0313 42.8743 30.0313 42.75V31.5C30.0313 30.6297 29.6856 29.7951 29.0702 29.1798C28.4549 28.5644 27.6203 28.2187 26.75 28.2187H19.25C18.3798 28.2187 17.5452 28.5644 16.9298 29.1798C16.3145 29.7951 15.9688 30.6297 15.9688 31.5V42.75C15.9688 42.8743 15.9194 42.9935 15.8315 43.0814C15.7436 43.1693 15.6244 43.2187 15.5 43.2187H4.25003C4.12571 43.2187 4.00648 43.1693 3.91858 43.0814C3.83067 42.9935 3.78128 42.8743 3.78128 42.75V21.082C3.78114 21.0168 3.79462 20.9522 3.82085 20.8925C3.84708 20.8328 3.88549 20.7792 3.93363 20.7351L3.95472 20.7164L22.6907 3.02575C22.776 2.95123 22.8855 2.91018 22.9989 2.91018C23.1122 2.91018 23.2217 2.95123 23.3071 3.02575L42.0453 20.7187L42.0641 20.7375C42.1127 20.7813 42.1515 20.8348 42.1781 20.8945C42.2048 20.9543 42.2186 21.0189 42.2188 21.0843V42.75Z" fill="#8C8A8B"/>
</svg>
