<svg width="20" height="20" viewBox="0 0 20 20" fill="none" xmlns="http://www.w3.org/2000/svg">
<path d="M6.25008 18.3337C6.13897 18.3337 6.04175 18.292 5.95841 18.2087C5.87508 18.1253 5.83341 18.0281 5.83341 17.917V15.417C5.83341 15.3059 5.87508 15.2087 5.95841 15.1253C6.04175 15.042 6.13897 15.0003 6.25008 15.0003H8.33341V15.8337H6.66675V16.2503H7.91675C8.02786 16.2503 8.12508 16.292 8.20842 16.3753C8.29175 16.4587 8.33341 16.5559 8.33341 16.667V17.917C8.33341 18.0281 8.29175 18.1253 8.20842 18.2087C8.12508 18.292 8.02786 18.3337 7.91675 18.3337H6.25008ZM9.58341 18.3337V15.0003H11.6667V15.8337H10.4167V16.2503H11.2501V17.0837H10.4167V18.3337H9.58341ZM12.9167 18.3337V15.8337H12.0834V15.0003H14.5834V15.8337H13.7501V18.3337H12.9167ZM6.66675 17.5003H7.50008V17.0837H6.66675V17.5003ZM4.16675 14.167L1.66675 11.667L4.16675 9.167L5.04175 10.042L4.25008 10.8337H15.7292L14.9584 10.042L15.8334 9.167L18.3334 11.667L15.8334 14.167L14.9584 13.292L15.7501 12.5003H4.27091L5.04175 13.292L4.16675 14.167ZM1.66675 8.33366V7.8545C1.66675 7.52116 1.75703 7.21561 1.93758 6.93783C2.11814 6.66005 2.36814 6.45172 2.68758 6.31283C3.04869 6.16005 3.42036 6.042 3.80258 5.95866C4.1848 5.87533 4.58397 5.83366 5.00008 5.83366C5.41619 5.83366 5.81564 5.87533 6.19841 5.95866C6.58119 6.042 6.95258 6.16005 7.31258 6.31283C7.63203 6.45172 7.88203 6.66005 8.06258 6.93783C8.24314 7.21561 8.33341 7.52116 8.33341 7.8545V8.33366H1.66675ZM11.6667 8.33366V7.8545C11.6667 7.52116 11.757 7.21561 11.9376 6.93783C12.1181 6.66005 12.3681 6.45172 12.6876 6.31283C13.0487 6.16005 13.4204 6.042 13.8026 5.95866C14.1848 5.87533 14.584 5.83366 15.0001 5.83366C15.4162 5.83366 15.8156 5.87533 16.1984 5.95866C16.5812 6.042 16.9526 6.16005 17.3126 6.31283C17.632 6.45172 17.882 6.66005 18.0626 6.93783C18.2431 7.21561 18.3334 7.52116 18.3334 7.8545V8.33366H11.6667ZM5.00008 5.00033C4.54175 5.00033 4.14953 4.83728 3.82341 4.51116C3.4973 4.18505 3.33397 3.79255 3.33341 3.33366C3.33286 2.87478 3.49619 2.48255 3.82341 2.157C4.15064 1.83144 4.54286 1.66811 5.00008 1.667C5.4573 1.66589 5.8498 1.82922 6.17758 2.157C6.50536 2.48478 6.66841 2.877 6.66675 3.33366C6.66508 3.79033 6.50203 4.18283 6.17758 4.51116C5.85314 4.8395 5.46064 5.00255 5.00008 5.00033ZM15.0001 5.00033C14.5417 5.00033 14.1495 4.83728 13.8234 4.51116C13.4973 4.18505 13.334 3.79255 13.3334 3.33366C13.3329 2.87478 13.4962 2.48255 13.8234 2.157C14.1506 1.83144 14.5429 1.66811 15.0001 1.667C15.4573 1.66589 15.8498 1.82922 16.1776 2.157C16.5054 2.48478 16.6684 2.877 16.6667 3.33366C16.6651 3.79033 16.502 4.18283 16.1776 4.51116C15.8531 4.8395 15.4606 5.00255 15.0001 5.00033Z" fill="#3E3238"/>
</svg>
