<svg width="22" height="22" viewBox="0 0 22 22" fill="none" xmlns="http://www.w3.org/2000/svg">
<mask id="mask0_631_16955" style="mask-type:alpha" maskUnits="userSpaceOnUse" x="0" y="0" width="22" height="22">
<rect width="22" height="22" fill="#D9D9D9"/>
</mask>
<g mask="url(#mask0_631_16955)">
<path d="M6.44358 12.8333C5.93823 12.8333 5.50561 12.6538 5.14574 12.2948C4.78587 11.9358 4.60594 11.5042 4.60594 11C4.60594 10.4958 4.78587 10.0642 5.14574 9.70521C5.50561 9.34618 5.93823 9.16667 6.44358 9.16667C6.94893 9.16667 7.38154 9.34618 7.74141 9.70521C8.10128 10.0642 8.28121 10.4958 8.28121 11C8.28121 11.5042 8.10128 11.9358 7.74141 12.2948C7.38154 12.6538 6.94893 12.8333 6.44358 12.8333ZM6.44358 16.5C4.91221 16.5 3.61055 15.9653 2.5386 14.8958C1.46664 13.8264 0.930664 12.5278 0.930664 11C0.930664 9.47222 1.46664 8.17361 2.5386 7.10417C3.61055 6.03472 4.91221 5.5 6.44358 5.5C7.46959 5.5 8.39989 5.75208 9.23449 6.25625C10.0691 6.76042 10.7314 7.425 11.2214 8.25H19.307L22.0635 11L17.9288 15.125L16.0912 13.75L14.2535 15.125L12.301 13.75H11.2214C10.7314 14.575 10.0691 15.2396 9.23449 15.7438C8.39989 16.2479 7.46959 16.5 6.44358 16.5ZM6.44358 14.6667C7.30114 14.6667 8.05534 14.4069 8.70617 13.8875C9.357 13.3681 9.78961 12.7111 10.004 11.9167H12.8753L14.2076 12.8563L16.0912 11.4583L17.7221 12.7188L19.4449 11L18.526 10.0833H10.004C9.78961 9.28889 9.357 8.63194 8.70617 8.1125C8.05534 7.59306 7.30114 7.33333 6.44358 7.33333C5.43287 7.33333 4.56765 7.69236 3.84791 8.41042C3.12817 9.12847 2.7683 9.99167 2.7683 11C2.7683 12.0083 3.12817 12.8715 3.84791 13.5896C4.56765 14.3076 5.43287 14.6667 6.44358 14.6667Z" fill="#8C8A8B"/>
</g>
</svg>
