<svg width="38" height="38" viewBox="0 0 38 38" fill="none" xmlns="http://www.w3.org/2000/svg">
<rect width="38" height="38" rx="19" fill="#E54F8E"/>
<path d="M14.1931 12.35C14.1928 12.8539 13.9924 13.3371 13.6359 13.6932C13.2794 14.0494 12.796 14.2493 12.2921 14.2491C11.7882 14.2488 11.305 14.0484 10.9489 13.6919C10.5928 13.3354 10.3928 12.852 10.3931 12.3481C10.3933 11.8442 10.5937 11.361 10.9502 11.0049C11.3067 10.6488 11.7901 10.4488 12.294 10.4491C12.7979 10.4493 13.2811 10.6497 13.6372 11.0062C13.9934 11.3627 14.1933 11.8461 14.1931 12.35ZM14.2501 15.656H10.4501V27.55H14.2501V15.656ZM20.2541 15.656H16.4731V27.55H20.2161V21.3085C20.2161 17.8315 24.7476 17.5085 24.7476 21.3085V27.55H28.5001V20.0165C28.5001 14.155 21.7931 14.3735 20.2161 17.252L20.2541 15.656Z" fill="white"/>
</svg>
