<svg width="20" height="20" viewBox="0 0 20 20" fill="none" xmlns="http://www.w3.org/2000/svg">
<path d="M10.5 0C12.7543 0 14.9163 0.867206 16.5104 2.41084C18.1045 3.95448 19 6.0481 19 8.23113C19 11.7093 16.4762 15.4999 11.4938 19.6433C11.2168 19.8737 10.8636 20.0003 10.4984 20C10.1331 19.9997 9.78016 19.8725 9.50354 19.6416L9.174 19.3647C4.41226 15.3293 2 11.6316 2 8.23113C2 6.0481 2.89553 3.95448 4.48959 2.41084C6.08365 0.867206 8.24566 0 10.5 0ZM10.5 1.26633C8.59248 1.26633 6.76309 2.00012 5.41427 3.30627C4.06545 4.61243 3.30769 6.38395 3.30769 8.23113C3.30769 11.1876 5.52903 14.594 10.0327 18.4099L10.3579 18.6826C10.3974 18.7155 10.4479 18.7336 10.5 18.7336C10.5521 18.7336 10.6026 18.7155 10.6421 18.6826C15.3637 14.7553 17.6923 11.2577 17.6923 8.23113C17.6923 7.3165 17.5063 6.41083 17.1448 5.56582C16.7834 4.72081 16.2536 3.95301 15.5857 3.30627C14.9179 2.65953 14.125 2.14651 13.2524 1.79649C12.3798 1.44648 11.4445 1.26633 10.5 1.26633ZM10.5 5.06531C11.3671 5.06531 12.1986 5.39885 12.8117 5.99256C13.4248 6.58626 13.7692 7.3915 13.7692 8.23113C13.7692 9.07076 13.4248 9.876 12.8117 10.4697C12.1986 11.0634 11.3671 11.397 10.5 11.397C9.63295 11.397 8.8014 11.0634 8.1883 10.4697C7.57521 9.876 7.23077 9.07076 7.23077 8.23113C7.23077 7.3915 7.57521 6.58626 8.1883 5.99256C8.8014 5.39885 9.63295 5.06531 10.5 5.06531ZM10.5 6.33164C9.97977 6.33164 9.48084 6.53176 9.11298 6.88799C8.74512 7.24421 8.53846 7.72735 8.53846 8.23113C8.53846 8.73491 8.74512 9.21805 9.11298 9.57427C9.48084 9.9305 9.97977 10.1306 10.5 10.1306C11.0202 10.1306 11.5192 9.9305 11.887 9.57427C12.2549 9.21805 12.4615 8.73491 12.4615 8.23113C12.4615 7.72735 12.2549 7.24421 11.887 6.88799C11.5192 6.53176 11.0202 6.33164 10.5 6.33164Z" fill="#8C8A8B"/>
</svg>
