<svg width="61" height="60" viewBox="0 0 61 60" fill="none" xmlns="http://www.w3.org/2000/svg">
<path d="M1.6665 30C1.6665 14.2599 14.4264 1.5 30.1665 1.5C45.9066 1.5 58.6665 14.2599 58.6665 30C58.6665 45.7401 45.9066 58.5 30.1665 58.5C14.4264 58.5 1.6665 45.7401 1.6665 30Z" stroke="#E54F8E" stroke-width="3"/>
<g clip-path="url(#clip0_187_174968)">
<path d="M41.3665 18.333H18.9665C18.2263 18.3369 17.5177 18.6459 16.9956 19.1924C16.4736 19.739 16.1805 20.4786 16.1805 21.2497L16.1665 38.7497C16.1687 39.5225 16.4644 40.263 16.9891 40.8095C17.5137 41.356 18.2246 41.664 18.9665 41.6663H41.3665C42.1084 41.664 42.8193 41.356 43.344 40.8095C43.8686 40.263 44.1643 39.5225 44.1665 38.7497V21.2497C44.1643 20.4768 43.8686 19.7363 43.344 19.1898C42.8193 18.6433 42.1084 18.3353 41.3665 18.333ZM41.3665 24.1663L30.1665 31.458L18.9665 24.1663V21.2497L30.1665 28.5413L41.3665 21.2497V24.1663Z" fill="#E54F8E"/>
</g>
<rect x="16.6665" y="18.833" width="27" height="22.3333" stroke="#E54F8E"/>
<defs>
<clipPath id="clip0_187_174968">
<rect x="16.1665" y="18.333" width="28" height="23.3333" fill="white"/>
</clipPath>
</defs>
</svg>
