<svg width="22" height="22" viewBox="0 0 22 22" fill="none" xmlns="http://www.w3.org/2000/svg">
<mask id="mask0_631_1994" style="mask-type:alpha" maskUnits="userSpaceOnUse" x="0" y="0" width="22" height="22">
<rect width="22" height="22" fill="#D9D9D9"/>
</mask>
<g mask="url(#mask0_631_1994)">
<path d="M3.687 18.3337C3.18165 18.3337 2.74904 18.1541 2.38917 17.7951C2.0293 17.4361 1.84937 17.0045 1.84937 16.5003V5.50033C1.84937 4.99616 2.0293 4.56456 2.38917 4.20553C2.74904 3.84651 3.18165 3.66699 3.687 3.66699H18.3881C18.8934 3.66699 19.3261 3.84651 19.6859 4.20553C20.0458 4.56456 20.2257 4.99616 20.2257 5.50033V16.5003C20.2257 17.0045 20.0458 17.4361 19.6859 17.7951C19.3261 18.1541 18.8934 18.3337 18.3881 18.3337H3.687ZM11.0375 11.917L3.687 7.33366V16.5003H18.3881V7.33366L11.0375 11.917ZM11.0375 10.0837L18.3881 5.50033H3.687L11.0375 10.0837ZM3.687 7.33366V5.50033V16.5003V7.33366Z" fill="#8C8A8B"/>
</g>
</svg>
