<svg width="18" height="18" viewBox="0 0 18 18" fill="none" xmlns="http://www.w3.org/2000/svg">
<path d="M4.00008 4.00033C4.91675 4.00033 5.66675 3.25033 5.66675 2.33366C5.66675 1.41699 4.91675 0.666992 4.00008 0.666992C3.08341 0.666992 2.33341 1.41699 2.33341 2.33366C2.33341 3.25033 3.08341 4.00033 4.00008 4.00033ZM7.33341 6.85866C7.33341 6.18366 6.91675 5.58366 6.31675 5.31699C5.60841 5.00866 4.83341 4.83366 4.00008 4.83366C3.16675 4.83366 2.39175 5.00866 1.68341 5.31699C1.08341 5.58366 0.666748 6.18366 0.666748 6.85866V7.33366H7.33341V6.85866ZM14.0001 4.00033C14.9167 4.00033 15.6667 3.25033 15.6667 2.33366C15.6667 1.41699 14.9167 0.666992 14.0001 0.666992C13.0834 0.666992 12.3334 1.41699 12.3334 2.33366C12.3334 3.25033 13.0834 4.00033 14.0001 4.00033ZM17.3334 6.85866C17.3334 6.18366 16.9167 5.58366 16.3167 5.31699C15.6084 5.00866 14.8334 4.83366 14.0001 4.83366C13.1667 4.83366 12.3917 5.00866 11.6834 5.31699C11.0834 5.58366 10.6667 6.18366 10.6667 6.85866V7.33366H17.3334V6.85866ZM14.8334 13.167V11.5003H3.16675V13.167L0.666748 10.667L3.16675 8.16699V9.83366H14.8334V8.16699L17.3334 10.667L14.8334 13.167ZM6.50008 16.0837V16.5003H8.16675V17.3337H5.66675V16.0837C5.66675 15.6253 6.04175 15.2503 6.50008 15.2503H7.33341V14.8337H5.66675V14.0003H7.33341C7.79175 14.0003 8.16675 14.3753 8.16675 14.8337V15.2503C8.16675 15.7087 7.79175 16.0837 7.33341 16.0837H6.50008ZM12.3334 14.8337V17.3337H11.5001V14.8337H11.0834V16.5003H10.2501V14.8337H9.83341V17.3337H9.00008V14.8337C9.00008 14.3753 9.37508 14.0003 9.83341 14.0003H11.5001C11.9584 14.0003 12.3334 14.3753 12.3334 14.8337Z" fill="#3E3238"/>
</svg>
