<svg width="28" height="38" viewBox="0 0 28 38" fill="none" xmlns="http://www.w3.org/2000/svg">
<path d="M14 24C12.3333 24 10.9167 23.4167 9.75 22.25C8.58333 21.0833 8 19.6667 8 18V6C8 4.33333 8.58333 2.91667 9.75 1.75C10.9167 0.583333 12.3333 0 14 0C15.6667 0 17.0833 0.583333 18.25 1.75C19.4167 2.91667 20 4.33333 20 6V18C20 19.6667 19.4167 21.0833 18.25 22.25C17.0833 23.4167 15.6667 24 14 24ZM12 38V31.85C8.53333 31.3833 5.66667 29.8333 3.4 27.2C1.13333 24.5667 0 21.5 0 18H4C4 20.7667 4.97533 23.1253 6.926 25.076C8.87667 27.0267 11.2347 28.0013 14 28C16.7653 27.9987 19.124 27.0233 21.076 25.074C23.028 23.1247 24.0027 20.7667 24 18H28C28 21.5 26.8667 24.5667 24.6 27.2C22.3333 29.8333 19.4667 31.3833 16 31.85V38H12ZM14 20C14.5667 20 15.042 19.808 15.426 19.424C15.81 19.04 16.0013 18.5653 16 18V6C16 5.43333 15.808 4.95867 15.424 4.576C15.04 4.19333 14.5653 4.00133 14 4C13.4347 3.99867 12.96 4.19067 12.576 4.576C12.192 4.96133 12 5.436 12 6V18C12 18.5667 12.192 19.042 12.576 19.426C12.96 19.81 13.4347 20.0013 14 20Z" fill="white"/>
</svg>
