<svg width="20" height="20" viewBox="0 0 20 20" fill="none" xmlns="http://www.w3.org/2000/svg">
<g clip-path="url(#clip0_1138_20075)">
<path d="M6 11.3333H5.33333C5.33333 11.5101 5.40357 11.6797 5.5286 11.8047C5.65362 11.9298 5.82319 12 6 12V11.3333ZM11.3333 11.3333V12C11.5101 12 11.6797 11.9298 11.8047 11.8047C11.9298 11.6797 12 11.5101 12 11.3333H11.3333ZM11.3333 8H12C12.0002 7.91239 11.983 7.82561 11.9496 7.74463C11.9162 7.66364 11.8672 7.59003 11.8053 7.528L11.3333 8ZM8.66667 5.33333L9.13867 4.86133C9.07674 4.79925 9.00317 4.74999 8.92218 4.71638C8.84118 4.68278 8.75436 4.66547 8.66667 4.66547C8.57898 4.66547 8.49215 4.68278 8.41116 4.71638C8.33016 4.74999 8.25659 4.79925 8.19467 4.86133L8.66667 5.33333ZM6 8L5.528 7.528C5.46613 7.59003 5.41709 7.66364 5.38369 7.74463C5.35029 7.82561 5.33318 7.91239 5.33333 8H6ZM19.8053 18.8613L14.472 13.528L13.528 14.472L18.8613 19.8053L19.8053 18.8613ZM8.66667 16C6.72175 16 4.85648 15.2274 3.48122 13.8521C2.10595 12.4769 1.33333 10.6116 1.33333 8.66667H0C0 10.9652 0.913093 13.1696 2.53841 14.7949C4.16372 16.4202 6.36812 17.3333 8.66667 17.3333V16ZM16 8.66667C16 10.6116 15.2274 12.4769 13.8521 13.8521C12.4769 15.2274 10.6116 16 8.66667 16V17.3333C10.9652 17.3333 13.1696 16.4202 14.7949 14.7949C16.4202 13.1696 17.3333 10.9652 17.3333 8.66667H16ZM8.66667 1.33333C10.6116 1.33333 12.4769 2.10595 13.8521 3.48122C15.2274 4.85648 16 6.72175 16 8.66667H17.3333C17.3333 6.36812 16.4202 4.16372 14.7949 2.53841C13.1696 0.913093 10.9652 0 8.66667 0V1.33333ZM8.66667 0C6.36812 0 4.16372 0.913093 2.53841 2.53841C0.913093 4.16372 0 6.36812 0 8.66667H1.33333C1.33333 6.72175 2.10595 4.85648 3.48122 3.48122C4.85648 2.10595 6.72175 1.33333 8.66667 1.33333V0ZM6 12H11.3333V10.6667H6V12ZM12 11.3333V8H10.6667V11.3333H12ZM11.8053 7.528L9.13867 4.86133L8.19467 5.80533L10.8613 8.472L11.8053 7.528ZM8.19467 4.86133L5.528 7.528L6.472 8.472L9.13867 5.80533L8.19467 4.86133ZM5.33333 8V11.3333H6.66667V8H5.33333Z" fill="#0F0A0C"/>
</g>
<defs>
<clipPath id="clip0_1138_20075">
<rect width="20" height="20" fill="white"/>
</clipPath>
</defs>
</svg>
