<svg width="63" height="48" viewBox="0 0 63 48" fill="none" xmlns="http://www.w3.org/2000/svg">
<path d="M24.0397 5.82031C17.4197 5.82031 12.0397 11.2003 12.0397 17.8203V23.6003C12.0397 24.8203 11.5197 26.6803 10.8997 27.7203L8.59969 31.5403C7.17969 33.9003 8.15969 36.5203 10.7597 37.4003C19.3797 40.2803 28.6797 40.2803 37.2997 37.4003C39.7197 36.6003 40.7797 33.7403 39.4597 31.5403L37.1597 27.7203C36.5597 26.6803 36.0397 24.8203 36.0397 23.6003V17.8203C36.0397 11.2203 30.6397 5.82031 24.0397 5.82031Z" stroke="#3E3238" stroke-width="2" stroke-miterlimit="10" stroke-linecap="round"/>
<path d="M27.7391 6.39988C27.1191 6.21988 26.4791 6.07988 25.8191 5.99988C23.8991 5.75988 22.0591 5.89988 20.3391 6.39988C20.9191 4.91988 22.3591 3.87988 24.0391 3.87988C25.7191 3.87988 27.1591 4.91988 27.7391 6.39988Z" stroke="#3E3238" stroke-width="2" stroke-miterlimit="10" stroke-linecap="round" stroke-linejoin="round"/>
<path d="M30.0398 38.1201C30.0398 41.4201 27.3398 44.1201 24.0398 44.1201C22.3998 44.1201 20.8798 43.4401 19.7998 42.3601C18.7198 41.2801 18.0398 39.7601 18.0398 38.1201" stroke="#3E3238" stroke-width="2" stroke-miterlimit="10"/>
<circle cx="48" cy="36" r="12" fill="#FDF2F7"/>
<path d="M43.4191 36.272C43.4191 32.72 45.1631 30.32 48.0111 30.32C50.8431 30.32 52.5871 32.72 52.5871 36.272C52.5871 39.84 50.8751 42.208 48.0111 42.208C45.1311 42.208 43.4191 39.84 43.4191 36.272ZM44.5551 36.272C44.5551 39.248 45.8191 41.168 48.0111 41.168C50.2031 41.168 51.4671 39.248 51.4671 36.272C51.4671 33.28 50.2031 31.376 48.0111 31.376C45.8191 31.376 44.5551 33.28 44.5551 36.272Z" fill="#3E3238"/>
</svg>
