<svg width="20" height="20" viewBox="0 0 20 20" fill="none" xmlns="http://www.w3.org/2000/svg">
<path d="M4.99992 15.834V8.33398C4.99992 7.0079 5.5267 5.73613 6.46438 4.79845C7.40207 3.86077 8.67384 3.33398 9.99992 3.33398C11.326 3.33398 12.5978 3.86077 13.5355 4.79845C14.4731 5.73613 14.9999 7.0079 14.9999 8.33398V15.834M4.99992 15.834H14.9999M4.99992 15.834H3.33325M14.9999 15.834H16.6666M9.16659 18.334H10.8333" stroke="#0F0A0C" stroke-width="1.5" stroke-linecap="round" stroke-linejoin="round"/>
<path d="M9.99984 3.33366C10.4601 3.33366 10.8332 2.96056 10.8332 2.50033C10.8332 2.04009 10.4601 1.66699 9.99984 1.66699C9.5396 1.66699 9.1665 2.04009 9.1665 2.50033C9.1665 2.96056 9.5396 3.33366 9.99984 3.33366Z" stroke="#0F0A0C" stroke-width="1.5"/>
</svg>
