<svg width="61" height="61" viewBox="0 0 61 61" fill="none" xmlns="http://www.w3.org/2000/svg">
<rect x="3" y="3" width="55" height="55" rx="27.5" stroke="#E54F8E" stroke-width="5"/>
<path d="M35.8044 35.4311L32.3822 38.8533C27.9663 36.6075 24.377 33.0182 22.1311 28.6022L25.5533 25.1644C25.7594 24.969 25.9054 24.7188 25.9743 24.4433C26.0431 24.1678 26.032 23.8783 25.9422 23.6089C25.3521 21.817 25.0528 19.9421 25.0556 18.0556M35.8044 35.4311L36.1525 35.7901C36.1533 35.7893 36.1542 35.7884 36.155 35.7876M35.8044 35.4311C36.0105 35.2313 36.2668 35.0911 36.5462 35.0254C36.8256 34.9596 37.1176 34.9708 37.3911 35.0578M35.8044 35.4311L36.158 35.7847L36.155 35.7876M36.155 35.7876L32.7358 39.2069L32.4791 39.4636L32.1556 39.299C27.6453 37.0051 23.9793 33.3392 21.6854 28.8289L21.5213 28.5061L21.7768 28.2495L25.199 24.8117L25.204 24.8066L25.2092 24.8017C25.3462 24.6717 25.4434 24.5053 25.4892 24.322C25.535 24.1387 25.5276 23.9462 25.4679 23.767L25.4673 23.7653C24.8606 21.9229 24.5528 19.9953 24.5556 18.0556H25.0556M36.155 35.7876C36.2958 35.652 36.4705 35.5569 36.6607 35.5121C36.8514 35.4672 37.0507 35.4747 37.2375 35.5336M25.0556 18.0556L24.5556 18.0548C24.5556 18.055 24.5556 18.0553 24.5556 18.0555L42.9444 35.9444M25.0556 18.0556C25.0556 17.643 24.8917 17.2473 24.5999 16.9556C24.3082 16.6639 23.9126 16.5 23.5 16.5H18.0556C17.643 16.5 17.2473 16.6639 16.9556 16.9556C16.6639 17.2473 16.5 17.643 16.5 18.0556C16.5 25.0691 19.2861 31.7953 24.2454 36.7546C29.2047 41.7139 35.9309 44.5 42.9444 44.5C43.357 44.5 43.7527 44.3361 44.0444 44.0444C44.3361 43.7527 44.5 43.357 44.5 42.9444V37.5C44.5 37.0874 44.3361 36.6918 44.0444 36.4001C43.7527 36.1083 43.357 35.9444 42.9444 35.9444M42.9444 35.9444C41.0579 35.9472 39.183 35.6479 37.3911 35.0578M42.9444 35.9444L42.9452 36.4444C42.9451 36.4444 42.9449 36.4444 42.9448 36.4444C41.0059 36.4473 39.0791 36.1398 37.2375 35.5336M37.3911 35.0578L37.2396 35.5343C37.2389 35.5341 37.2382 35.5338 37.2375 35.5336M37.3911 35.0578L37.2347 35.5327C37.2356 35.533 37.2365 35.5333 37.2375 35.5336" fill="#E54F8E" stroke="#E54F8E"/>
</svg>
