<svg width="37" height="42" viewBox="0 0 37 42" fill="none" xmlns="http://www.w3.org/2000/svg">
<path d="M34.834 19.6982H19.541V2.40137C19.541 1.51682 18.9071 0.799805 18.125 0.799805C17.3429 0.799805 16.709 1.51682 16.709 2.40137V19.6982H1.41602C0.63395 19.6982 0 20.4153 0 21.2998C0 22.1843 0.63395 22.9014 1.41602 22.9014H16.709V40.1982C16.709 41.0828 17.3429 41.7998 18.125 41.7998C18.9071 41.7998 19.541 41.0828 19.541 40.1982V22.9014H34.834C35.6161 22.9014 36.25 22.1843 36.25 21.2998C36.25 20.4153 35.6161 19.6982 34.834 19.6982Z" fill="#E54F8E"/>
</svg>
