<svg width="28" height="28" viewBox="0 0 28 28" fill="none" xmlns="http://www.w3.org/2000/svg">
<path fill-rule="evenodd" clip-rule="evenodd" d="M18.1837 3.21637C18.6212 2.77894 19.2146 2.5332 19.8333 2.5332C20.452 2.5332 21.0454 2.77894 21.483 3.21637L24.7835 6.51687C25.2209 6.95444 25.4667 7.54782 25.4667 8.16654C25.4667 8.78525 25.2209 9.37864 24.7835 9.8162L21.483 13.1167C21.0454 13.5541 20.452 13.7999 19.8333 13.7999C19.2146 13.7999 18.6212 13.5541 18.1837 13.1167L14.8832 9.8162C14.4457 9.37864 14.2 8.78525 14.2 8.16654C14.2 7.54782 14.4457 6.95444 14.8832 6.51687L18.1837 3.21637ZM19.8333 4.8672L16.534 8.16654L19.8333 11.4659L23.1327 8.16654L19.8333 4.8672ZM10.5 3.49987C11.1188 3.49987 11.7123 3.7457 12.1499 4.18329C12.5875 4.62087 12.8333 5.21437 12.8333 5.8332V10.4999C12.8333 11.1187 12.5875 11.7122 12.1499 12.1498C11.7123 12.5874 11.1188 12.8332 10.5 12.8332H5.83333C5.21449 12.8332 4.621 12.5874 4.18342 12.1498C3.74583 11.7122 3.5 11.1187 3.5 10.4999V5.8332C3.5 5.21437 3.74583 4.62087 4.18342 4.18329C4.621 3.7457 5.21449 3.49987 5.83333 3.49987H10.5ZM10.5 5.8332H5.83333V10.4999H10.5V5.8332ZM24.5 17.4999C24.5 16.881 24.2542 16.2875 23.8166 15.85C23.379 15.4124 22.7855 15.1665 22.1667 15.1665H17.5C16.8812 15.1665 16.2877 15.4124 15.8501 15.85C15.4125 16.2875 15.1667 16.881 15.1667 17.4999V22.1665C15.1667 22.7854 15.4125 23.3789 15.8501 23.8165C16.2877 24.254 16.8812 24.4999 17.5 24.4999H22.1667C22.7855 24.4999 23.379 24.254 23.8166 23.8165C24.2542 23.3789 24.5 22.7854 24.5 22.1665V17.4999ZM22.1667 17.4999V22.1665H17.5V17.4999H22.1667ZM10.5 15.1665C11.1188 15.1665 11.7123 15.4124 12.1499 15.85C12.5875 16.2875 12.8333 16.881 12.8333 17.4999V22.1665C12.8333 22.7854 12.5875 23.3789 12.1499 23.8165C11.7123 24.254 11.1188 24.4999 10.5 24.4999H5.83333C5.21449 24.4999 4.621 24.254 4.18342 23.8165C3.74583 23.3789 3.5 22.7854 3.5 22.1665V17.4999C3.5 16.881 3.74583 16.2875 4.18342 15.85C4.621 15.4124 5.21449 15.1665 5.83333 15.1665H10.5ZM10.5 17.4999H5.83333V22.1665H10.5V17.4999Z" fill="#3E3238"/>
</svg>
