<svg width="20" height="20" viewBox="0 0 20 20" fill="none" xmlns="http://www.w3.org/2000/svg">
<g clip-path="url(#clip0_188_175309)">
<path d="M19.5 0H0.5C0.367392 0 0.240215 0.0526785 0.146447 0.146447C0.0526785 0.240215 0 0.367392 0 0.5V19.5C0 19.6326 0.0526785 19.7598 0.146447 19.8536C0.240215 19.9473 0.367392 20 0.5 20H7.5C7.63261 20 7.75979 19.9473 7.85355 19.8536C7.94732 19.7598 8 19.6326 8 19.5V8H19.5C19.6326 8 19.7598 7.94732 19.8536 7.85355C19.9473 7.75979 20 7.63261 20 7.5V0.5C20 0.367392 19.9473 0.240215 19.8536 0.146447C19.7598 0.0526785 19.6326 0 19.5 0ZM19 7H15.5V4.5C15.5 4.36739 15.4473 4.24021 15.3536 4.14645C15.2598 4.05268 15.1326 4 15 4C14.8674 4 14.7402 4.05268 14.6464 4.14645C14.5527 4.24021 14.5 4.36739 14.5 4.5V7H11.5V4.5C11.5 4.36739 11.4473 4.24021 11.3536 4.14645C11.2598 4.05268 11.1326 4 11 4C10.8674 4 10.7402 4.05268 10.6464 4.14645C10.5527 4.24021 10.5 4.36739 10.5 4.5V7H8V4.5C8 4.36739 7.94732 4.24021 7.85355 4.14645C7.75979 4.05268 7.63261 4 7.5 4C7.36739 4 7.24021 4.05268 7.14645 4.14645C7.05268 4.24021 7 4.36739 7 4.5V7H4.5C4.36739 7 4.24021 7.05268 4.14645 7.14645C4.05268 7.24021 4 7.36739 4 7.5C4 7.63261 4.05268 7.75979 4.14645 7.85355C4.24021 7.94732 4.36739 8 4.5 8H7V10.5H4.5C4.36739 10.5 4.24021 10.5527 4.14645 10.6464C4.05268 10.7402 4 10.8674 4 11C4 11.1326 4.05268 11.2598 4.14645 11.3536C4.24021 11.4473 4.36739 11.5 4.5 11.5H7V14.5H4.5C4.36739 14.5 4.24021 14.5527 4.14645 14.6464C4.05268 14.7402 4 14.8674 4 15C4 15.1326 4.05268 15.2598 4.14645 15.3536C4.24021 15.4473 4.36739 15.5 4.5 15.5H7V19H1V1H19V7Z" fill="black" fill-opacity="0.5"/>
</g>
<defs>
<clipPath id="clip0_188_175309">
<rect width="20" height="20" fill="white"/>
</clipPath>
</defs>
</svg>
