<svg width="15" height="15" viewBox="0 0 15 15" fill="none" xmlns="http://www.w3.org/2000/svg">
<path d="M3.75 1.25C4.24728 1.25 4.72419 1.44754 5.07583 1.79917C5.42746 2.15081 5.625 2.62772 5.625 3.125C5.625 3.925 5.11875 4.6125 4.4125 4.88125C4.46875 5.16875 4.61875 5.51875 5 6.01875C5.625 6.825 6.875 8.01875 7.5 8.85625C8.125 8.01875 9.375 6.825 10 6.01875C10.3813 5.51875 10.5312 5.16875 10.5875 4.88125C10.2315 4.74541 9.92512 4.50485 9.70866 4.19132C9.4922 3.87778 9.37586 3.506 9.375 3.125C9.375 2.62772 9.57254 2.15081 9.92417 1.79917C10.2758 1.44754 10.7527 1.25 11.25 1.25C11.7473 1.25 12.2242 1.44754 12.5758 1.79917C12.9275 2.15081 13.125 2.62772 13.125 3.125C13.125 3.95 12.5875 4.65625 11.8438 4.90625C11.7938 5.23125 11.65 5.625 11.25 6.14375C10.625 6.98125 9.375 8.175 8.75 8.9875C8.36875 9.48125 8.21875 9.83125 8.1625 10.1187C8.86875 10.3875 9.375 11.075 9.375 11.875C9.375 12.3723 9.17746 12.8492 8.82583 13.2008C8.47419 13.5525 7.99728 13.75 7.5 13.75C7.00272 13.75 6.52581 13.5525 6.17417 13.2008C5.82254 12.8492 5.625 12.3723 5.625 11.875C5.625 11.075 6.13125 10.3875 6.8375 10.1187C6.78125 9.83125 6.63125 9.48125 6.25 8.9875C5.625 8.175 4.375 6.98125 3.75 6.14375C3.35 5.625 3.20625 5.23125 3.15625 4.90625C2.78344 4.7803 2.45941 4.5408 2.22963 4.22134C1.99984 3.90189 1.87584 3.51851 1.875 3.125C1.875 2.62772 2.07254 2.15081 2.42417 1.79917C2.77581 1.44754 3.25272 1.25 3.75 1.25ZM3.75 2.5C3.58424 2.5 3.42527 2.56585 3.30806 2.68306C3.19085 2.80027 3.125 2.95924 3.125 3.125C3.125 3.29076 3.19085 3.44973 3.30806 3.56694C3.42527 3.68415 3.58424 3.75 3.75 3.75C3.91576 3.75 4.07473 3.68415 4.19194 3.56694C4.30915 3.44973 4.375 3.29076 4.375 3.125C4.375 2.95924 4.30915 2.80027 4.19194 2.68306C4.07473 2.56585 3.91576 2.5 3.75 2.5ZM11.25 2.5C11.0842 2.5 10.9253 2.56585 10.8081 2.68306C10.6908 2.80027 10.625 2.95924 10.625 3.125C10.625 3.29076 10.6908 3.44973 10.8081 3.56694C10.9253 3.68415 11.0842 3.75 11.25 3.75C11.4158 3.75 11.5747 3.68415 11.6919 3.56694C11.8092 3.44973 11.875 3.29076 11.875 3.125C11.875 2.95924 11.8092 2.80027 11.6919 2.68306C11.5747 2.56585 11.4158 2.5 11.25 2.5ZM7.5 11.25C7.33424 11.25 7.17527 11.3158 7.05806 11.4331C6.94085 11.5503 6.875 11.7092 6.875 11.875C6.875 12.0408 6.94085 12.1997 7.05806 12.3169C7.17527 12.4342 7.33424 12.5 7.5 12.5C7.66576 12.5 7.82473 12.4342 7.94194 12.3169C8.05915 12.1997 8.125 12.0408 8.125 11.875C8.125 11.7092 8.05915 11.5503 7.94194 11.4331C7.82473 11.3158 7.66576 11.25 7.5 11.25Z" fill="#0F0A0C"/>
</svg>
