<svg width="20" height="20" viewBox="0 0 20 20" fill="none" xmlns="http://www.w3.org/2000/svg">
<path d="M9.99992 10.0003C12.3011 10.0003 14.1666 8.13485 14.1666 5.83366C14.1666 3.53247 12.3011 1.66699 9.99992 1.66699C7.69873 1.66699 5.83325 3.53247 5.83325 5.83366C5.83325 8.13485 7.69873 10.0003 9.99992 10.0003Z" stroke="#0F0A0C" stroke-width="1.5" stroke-linecap="round" stroke-linejoin="round"/>
<path d="M2.84155 18.3333C2.84155 15.1083 6.04988 12.5 9.99988 12.5C10.7999 12.5 11.5749 12.6083 12.2999 12.8083" stroke="#0F0A0C" stroke-width="1.5" stroke-linecap="round" stroke-linejoin="round"/>
<path d="M18.3334 15.0003C18.3334 15.267 18.3001 15.5253 18.2334 15.7753C18.1584 16.1087 18.0251 16.4337 17.8501 16.717C17.2751 17.6837 16.2167 18.3337 15.0001 18.3337C14.1417 18.3337 13.3667 18.0086 12.7834 17.4753C12.5334 17.2586 12.3167 17.0003 12.1501 16.717C11.8417 16.217 11.6667 15.6253 11.6667 15.0003C11.6667 14.1003 12.0251 13.2753 12.6084 12.6753C13.2168 12.0503 14.0667 11.667 15.0001 11.667C15.9834 11.667 16.8751 12.092 17.4751 12.7753C18.0084 13.367 18.3334 14.1503 18.3334 15.0003Z" stroke="#0F0A0C" stroke-width="1.5" stroke-miterlimit="10" stroke-linecap="round" stroke-linejoin="round"/>
<path d="M16.2416 14.9834H13.7583" stroke="#0F0A0C" stroke-width="1.5" stroke-miterlimit="10" stroke-linecap="round" stroke-linejoin="round"/>
<path d="M15 13.7666V16.2583" stroke="#0F0A0C" stroke-width="1.5" stroke-miterlimit="10" stroke-linecap="round" stroke-linejoin="round"/>
</svg>
