<svg width="20" height="20" viewBox="0 0 20 20" fill="none" xmlns="http://www.w3.org/2000/svg">
<path d="M9.99992 10.0003C12.3011 10.0003 14.1666 8.13485 14.1666 5.83366C14.1666 3.53247 12.3011 1.66699 9.99992 1.66699C7.69873 1.66699 5.83325 3.53247 5.83325 5.83366C5.83325 8.13485 7.69873 10.0003 9.99992 10.0003Z" stroke="#0F0A0C" stroke-width="1.5" stroke-linecap="round" stroke-linejoin="round"/>
<path d="M16.0083 13.1162L13.0583 16.0662C12.9416 16.1829 12.8333 16.3995 12.8083 16.5579L12.6499 17.6828C12.5916 18.0912 12.875 18.3745 13.2833 18.3162L14.4083 18.1579C14.5666 18.1329 14.7916 18.0245 14.9 17.9079L17.8499 14.9579C18.3583 14.4495 18.5999 13.8579 17.8499 13.1079C17.1083 12.3662 16.5166 12.6079 16.0083 13.1162Z" stroke="#0F0A0C" stroke-width="1.5" stroke-miterlimit="10" stroke-linecap="round" stroke-linejoin="round"/>
<path d="M15.5833 13.541C15.8333 14.441 16.5332 15.141 17.4332 15.391" stroke="#0F0A0C" stroke-width="1.5" stroke-miterlimit="10" stroke-linecap="round" stroke-linejoin="round"/>
<path d="M2.84155 18.3333C2.84155 15.1083 6.04991 12.5 9.99991 12.5C10.8666 12.5 11.6999 12.625 12.4749 12.8583" stroke="#0F0A0C" stroke-width="1.5" stroke-linecap="round" stroke-linejoin="round"/>
</svg>
