<svg width="16" height="16" viewBox="0 0 16 16" fill="none" xmlns="http://www.w3.org/2000/svg">
<g clip-path="url(#clip0_1138_126)">
<path d="M5.7107 15.0733L5.77765 15.1913L5.90176 15.1365L7.99962 14.21L10.0982 15.1372L10.2224 15.1921L10.2893 15.074L11.4667 12.9963L13.7054 12.4922L13.8337 12.4633L13.8218 12.3323L13.6019 9.90927L15.1152 8.09611L15.1954 7.99995L15.1151 7.90383L13.6005 6.0907L13.8211 3.6677L13.833 3.53668L13.7047 3.50777L11.4667 3.00367L10.2886 0.926013L10.2216 0.807927L10.0975 0.862802L7.99961 1.78997L5.90176 0.863542L5.7776 0.808715L5.71067 0.926785L4.5333 3.00369L2.29457 3.50853L2.16622 3.53748L2.17819 3.6685L2.39946 6.09072L0.884881 7.90383L0.804569 7.99998L0.884859 8.09614L2.39876 9.90928L2.17819 12.3323L2.16626 12.4633L2.29456 12.4922L4.53261 12.9971L5.7107 15.0733ZM8.05926 13.0864L7.9995 13.0605L7.93978 13.0865L6.21367 13.8376L5.22932 12.1336L5.19659 12.077L5.13281 12.0624L3.26591 11.6364L3.43628 9.605L3.44146 9.54323L3.40153 9.49583L2.14137 7.99975L3.40178 6.49554L3.44146 6.44818L3.43628 6.38661L3.26595 4.3636L5.13281 3.9376L5.19688 3.92297L5.22957 3.86596L6.20619 2.1624L7.93995 2.91435L7.99977 2.94029L8.05954 2.91425L9.78563 2.16241L10.77 3.86639L10.8027 3.92304L10.8665 3.9376L12.7333 4.3636L12.563 6.38661L12.5578 6.44818L12.5975 6.49554L13.8579 7.99975L12.5977 9.49583L12.5578 9.54325L12.563 9.60504L12.7334 11.6286L10.8659 12.0625L10.8022 12.0773L10.7697 12.1341L9.79374 13.8376L8.05926 13.0864ZM7.12992 10.2709L7.23833 10.3843L7.34675 10.2709L10.9416 6.5112L11.0398 6.40841L10.9424 6.30479L10.4291 5.75881L10.3207 5.64354L10.2114 5.75789L7.23803 8.86765L5.7876 7.35915L5.67917 7.24638L5.57106 7.35945L5.05772 7.89634L4.95861 8L5.05772 8.10366L7.12992 10.2709Z" fill="#0F0A0C" stroke="#3E3238" stroke-width="0.3"/>
</g>
<defs>
<clipPath id="clip0_1138_126">
<rect width="16" height="16" fill="white"/>
</clipPath>
</defs>
</svg>
