<svg width="46" height="40" viewBox="0 0 46 40" fill="none" xmlns="http://www.w3.org/2000/svg">
<path d="M23 2.87521L3.9625 10.4902C3.67417 10.6185 3.44083 10.8102 3.2625 11.0652C3.0875 11.3252 3 11.6152 3 11.9352V35.9652C3 36.3169 3.16833 36.661 3.505 36.9977C3.84167 37.3344 4.18583 37.5027 4.5375 37.5027H10.5V21.5402C10.5 20.4235 10.8933 19.471 11.68 18.6827C12.4667 17.8944 13.4192 17.5002 14.5375 17.5002H31.4625C32.5792 17.5002 33.5317 17.8935 34.32 18.6802C35.1067 19.4669 35.5 20.4194 35.5 21.5377V37.5002H41.4625C41.8142 37.5002 42.1583 37.3319 42.495 36.9952C42.8317 36.6585 43 36.3144 43 35.9627V11.9327C43 11.6127 42.9117 11.3244 42.735 11.0677C42.5583 10.811 42.3258 10.6194 42.0375 10.4927L23 2.87521ZM0.5 35.9627V11.9327C0.5 11.0827 0.733333 10.3219 1.2 9.65021C1.66667 8.97688 2.28333 8.48521 3.05 8.17521L21.51 0.800215C21.9967 0.580215 22.4933 0.470215 23 0.470215C23.5067 0.470215 24.0033 0.57938 24.49 0.797714L42.9525 8.17271C43.7192 8.48438 44.3358 8.97605 44.8025 9.64771C45.2675 10.321 45.5 11.0827 45.5 11.9327V35.9627C45.5 37.0794 45.1067 38.0319 44.32 38.8202C43.5333 39.6069 42.5808 40.0002 41.4625 40.0002H33V21.5377C33 21.0894 32.8558 20.721 32.5675 20.4327C32.2792 20.1444 31.9108 20.0002 31.4625 20.0002H14.5375C14.0892 20.0002 13.7208 20.1444 13.4325 20.4327C13.1442 20.721 13 21.0894 13 21.5377V40.0002H4.5375C3.42083 40.0002 2.46833 39.6069 1.68 38.8202C0.893333 38.0335 0.5 37.081 0.5 35.9627ZM16.895 40.0002V36.1552H20.74V40.0002H16.895ZM21.0775 32.5002V28.6552H24.9225V32.5002H21.0775ZM25.26 40.0002V36.1552H29.105V40.0002H25.26Z" fill="#8C8A8B"/>
</svg>
