<svg width="17" height="18" viewBox="0 0 17 18" fill="none" xmlns="http://www.w3.org/2000/svg">
<path d="M14.3752 3.09155C13.6111 2.31997 12.701 1.70819 11.6981 1.29185C10.6952 0.875514 9.6194 0.662951 8.5335 0.666549C3.9835 0.666549 0.275163 4.37488 0.275163 8.92488C0.275163 10.3832 0.658496 11.7999 1.37516 13.0499L0.208496 17.3332L4.5835 16.1832C5.79183 16.8415 7.15016 17.1915 8.5335 17.1915C13.0835 17.1915 16.7918 13.4832 16.7918 8.93322C16.7918 6.72488 15.9335 4.64988 14.3752 3.09155ZM8.5335 15.7915C7.30016 15.7915 6.09183 15.4582 5.0335 14.8332L4.7835 14.6832L2.1835 15.3665L2.87516 12.8332L2.7085 12.5749C2.02312 11.4808 1.65927 10.2159 1.6585 8.92488C1.6585 5.14155 4.74183 2.05822 8.52516 2.05822C10.3585 2.05822 12.0835 2.77488 13.3752 4.07488C14.0148 4.71143 14.5218 5.46867 14.8665 6.30266C15.2113 7.13664 15.387 8.03079 15.3835 8.93322C15.4002 12.7165 12.3168 15.7915 8.5335 15.7915ZM12.3002 10.6582C12.0918 10.5582 11.0752 10.0582 10.8918 9.98322C10.7002 9.91655 10.5668 9.88321 10.4252 10.0832C10.2835 10.2915 9.89183 10.7582 9.77516 10.8915C9.6585 11.0332 9.5335 11.0499 9.32516 10.9415C9.11683 10.8415 8.45016 10.6165 7.66683 9.91655C7.05016 9.36655 6.64183 8.69155 6.51683 8.48322C6.40016 8.27488 6.50016 8.16655 6.6085 8.05822C6.70016 7.96655 6.81683 7.81655 6.91683 7.69988C7.01683 7.58321 7.0585 7.49155 7.12516 7.35821C7.19183 7.21655 7.1585 7.09988 7.1085 6.99988C7.0585 6.89988 6.64183 5.88321 6.47516 5.46655C6.3085 5.06655 6.1335 5.11655 6.0085 5.10821H5.6085C5.46683 5.10821 5.25016 5.15822 5.0585 5.36655C4.87516 5.57488 4.34183 6.07488 4.34183 7.09155C4.34183 8.10821 5.0835 9.09155 5.1835 9.22488C5.2835 9.36655 6.64183 11.4499 8.7085 12.3415C9.20016 12.5582 9.5835 12.6832 9.8835 12.7749C10.3752 12.9332 10.8252 12.9082 11.1835 12.8582C11.5835 12.7999 12.4085 12.3582 12.5752 11.8749C12.7502 11.3915 12.7502 10.9832 12.6918 10.8915C12.6335 10.7999 12.5085 10.7582 12.3002 10.6582Z" fill="#34C759"/>
</svg>
