<svg width="68" height="68" viewBox="0 0 68 68" fill="none" xmlns="http://www.w3.org/2000/svg">
<path d="M47.3811 39.8371C46.6572 39.4652 43.0514 37.6988 42.3807 37.4598C41.71 37.2074 41.2186 37.0879 40.7338 37.8316C40.2424 38.5688 38.8479 40.209 38.4096 40.707C37.9846 41.1984 37.5529 41.2582 36.8291 40.893C32.526 38.7414 29.7037 37.0547 26.8682 32.1871C26.1178 30.8922 27.6186 30.9852 29.0197 28.1895C29.2588 27.698 29.1393 27.2797 28.9533 26.9078C28.7674 26.5359 27.3064 22.9367 26.6955 21.4691C26.1045 20.0414 25.4936 20.2406 25.0486 20.2141C24.6236 20.1875 24.1389 20.1875 23.6475 20.1875C23.1561 20.1875 22.3658 20.3734 21.6951 21.0973C21.0244 21.8344 19.1318 23.6074 19.1318 27.2066C19.1318 30.8059 21.7549 34.2922 22.1135 34.7836C22.4854 35.275 27.2732 42.6594 34.6244 45.8402C39.2729 47.8457 41.0924 48.0184 43.4166 47.673C44.8311 47.4605 47.7463 45.9066 48.3506 44.1867C48.9549 42.4734 48.9549 41.0059 48.7756 40.7004C48.5963 40.375 48.1049 40.1891 47.3811 39.8371Z" fill="#E54F8E"/>
<path d="M61.439 22.4719C59.9382 18.9059 57.7866 15.7051 55.044 12.9559C52.3015 10.2133 49.1007 8.05508 45.528 6.56094C41.8757 5.02695 37.9975 4.25 33.9999 4.25H33.8671C29.8429 4.26992 25.9448 5.0668 22.2792 6.63398C18.7397 8.14805 15.5655 10.2996 12.8495 13.0422C10.1335 15.7848 8.00184 18.9723 6.52762 22.525C5.00028 26.2039 4.22997 30.1152 4.24989 34.1395C4.26981 38.748 5.37215 43.3234 7.43739 47.4141V57.5078C7.43739 59.1945 8.80536 60.5625 10.4921 60.5625H20.5925C24.6831 62.6277 29.2585 63.7301 33.8671 63.75H34.0065C37.9843 63.75 41.8425 62.9797 45.4749 61.4723C49.0276 59.9914 52.2218 57.8664 54.9577 55.1504C57.7003 52.4344 59.8585 49.2602 61.3659 45.7207C62.9331 42.0551 63.73 38.157 63.7499 34.1328C63.7698 30.0887 62.9862 26.1641 61.439 22.4719ZM51.405 51.5578C46.7499 56.1664 40.5741 58.7031 33.9999 58.7031H33.887C29.8827 58.6832 25.905 57.6871 22.3921 55.8145L21.8343 55.5156H12.4843V46.1656L12.1854 45.6078C10.3128 42.0949 9.31669 38.1172 9.29676 34.1129C9.2702 27.4922 11.8003 21.2766 16.4421 16.5949C21.0772 11.9133 27.2729 9.32344 33.8936 9.29688H34.0065C37.3268 9.29688 40.5475 9.94102 43.5823 11.216C46.544 12.4578 49.2003 14.2441 51.4847 16.5285C53.7624 18.8062 55.5554 21.4691 56.7972 24.4309C58.0854 27.4988 58.7296 30.7527 58.7163 34.1129C58.6765 40.727 56.08 46.9227 51.405 51.5578Z" fill="#E54F8E"/>
</svg>
